<?xml version="1.0" encoding="UTF-8"?>
<svg width="30px" height="30px" viewBox="0 0 30 30" version="1.1" xmlns="http://www.w3.org/2000/svg" xmlns:xlink="http://www.w3.org/1999/xlink">
    <title>Icons / Social Media / Facebook Copy 2</title>
    <g id="ðŸ› ï¸-For-Devs---Templates---Parishes" stroke="none" stroke-width="1" fill="none" fill-rule="evenodd">
        <g id="Expand-the-Story" transform="translate(-1166.000000, -6280.000000)" fill="#FFFFFF">
            <g id="Group-13" transform="translate(169.497579, 6152.000000)">
                <g id="Group-3" transform="translate(996.502421, 128.000000)">
                    <path d="M8.84765625,19.3359375 L12.65625,19.3359375 L12.65625,29.8177734 C5.4852832,28.6924805 0,22.4869336 0,15 C0,6.71572266 6.71572266,-2.71782596e-13 15,-2.71782596e-13 C23.2842773,-2.71782596e-13 30,6.71572266 30,15 C30,22.4869336 24.5147168,28.6924805 17.34375,29.8177734 L17.34375,29.8177734 L17.34375,19.3359375 L20.8388672,19.3359375 L21.5039062,15 L21.5039062,15 L17.34375,15 L17.34375,12.1862402 C17.34375,11.0000098 17.9248535,9.84375 19.7882227,9.84375 L21.6796875,9.84375 L21.6796875,6.15234375 C21.6796875,6.15234375 19.9630957,5.859375 18.3219727,5.859375 L18.3219727,5.859375 C14.8956445,5.859375 12.65625,7.9359375 12.65625,11.6953125 L12.65625,15 L8.84765625,15 L8.84765625,19.3359375 Z" id="Combined-Shape"></path>
                </g>
            </g>
        </g>
    </g>
</svg>