<?xml version="1.0" encoding="UTF-8"?>
<svg width="29px" height="29px" viewBox="0 0 29 29" version="1.1" xmlns="http://www.w3.org/2000/svg" xmlns:xlink="http://www.w3.org/1999/xlink">
    <title>Icons / Social Media / Facebook Copy 3</title>
    <g id="ðŸ› ï¸-For-Devs---Templates---Parishes" stroke="none" stroke-width="1" fill="none" fill-rule="evenodd">
        <g id="Expand-the-Story" transform="translate(-1258.000000, -6265.000000)" fill="#FFFFFF">
            <g id="Group-13" transform="translate(169.497579, 6152.000000)">
                <g id="Icons-/-Social-Media-/-Facebook-Copy-3" transform="translate(1088.502421, 113.000000)">
                    <path d="M5.5245,23.5063125 L9.6696875,23.5063125 L9.6696875,11.0290625 L5.5245,11.0290625 L5.5245,23.5063125 Z M7.384125,5.5263125 C8.6401875,5.5263125 9.4123125,6.4325625 9.4376875,7.6215625 C9.4376875,8.7851875 8.6401875,9.718625 7.3605625,9.718625 L7.337,9.718625 C6.1045,9.718625 5.3088125,8.7851875 5.3088125,7.6215625 C5.3088125,6.4325625 6.1280625,5.5263125 7.384125,5.5263125 L7.384125,5.5263125 Z M24.84575,23.5063125 L20.760375,23.5063125 L20.760375,16.9885625 C20.760375,15.3536875 20.296375,14.235375 18.817375,14.235375 C17.6881875,14.235375 17.0139375,14.989375 16.7203125,15.7161875 C16.6115625,15.9771875 16.584375,16.3396875 16.584375,16.704 L16.584375,23.5063125 L12.3666875,23.5063125 C12.3666875,23.5063125 12.41925,12.125625 12.3666875,10.9819375 L16.584375,10.9819375 L16.584375,12.7074375 C17.1263125,11.879125 18.096,10.6955625 20.2691875,10.6955625 C22.9589375,10.6955625 24.84575,12.7835625 24.84575,16.52275 L24.84575,23.5063125 Z M26.23775,0 L2.76225,0 L1.8125,0 C0.812,0 0,0.8101875 0,1.8125 L0,2.76225 L0,26.2395625 L0,27.1875 C0,28.1898125 0.812,29 1.8125,29 L2.76225,29 L26.23775,29 L27.1875,29 C28.188,29 29,28.1898125 29,27.1875 L29,26.2395625 L29,2.76225 L29,1.8125 C29,0.8101875 28.188,0 27.1875,0 L26.23775,0 Z" id="Fill-7"></path>
                </g>
            </g>
        </g>
    </g>
</svg>