<?xml version="1.0" encoding="UTF-8"?>
<svg width="29px" height="25px" viewBox="0 0 29 25" version="1.1" xmlns="http://www.w3.org/2000/svg" xmlns:xlink="http://www.w3.org/1999/xlink">
    <title>Icons / Social Media / Facebook</title>
    <g id="ðŸ› ï¸-For-Devs---Templates---Parishes" stroke="none" stroke-width="1" fill="none" fill-rule="evenodd">
        <g id="Expand-the-Story" transform="translate(-1077.000000, -6282.000000)" fill="#FFFFFF">
            <g id="Group-13" transform="translate(169.497579, 6152.000000)">
                <g id="Icons-/-Social-Media-/-Facebook" transform="translate(907.502421, 128.000000)">
                    <path d="M29,5.68879393 C27.9324375,6.16355937 26.785125,6.48067369 25.581625,6.62745232 C26.8105,5.88993501 27.7548125,4.72295432 28.198875,3.33489964 C27.04975,4.01624241 25.7755625,4.51094074 24.421625,4.77912885 C23.334125,3.62120857 21.7880625,2.9 20.078875,2.9 C16.7928125,2.9 14.1284375,5.56376029 14.1284375,8.84906464 C14.1284375,9.31295759 14.181,9.76960221 14.2825,10.2045018 C9.338,9.95624664 4.9535625,7.58785569 2.019125,3.99087326 C1.5061875,4.86792086 1.2125625,5.88812293 1.2125625,6.97899619 C1.2125625,9.04476948 2.2638125,10.8622875 3.860625,11.9296037 C2.8855,11.9006104 1.9665625,11.6306102 1.1654375,11.1848381 L1.1654375,11.2609456 C1.1654375,14.1439677 3.215375,16.5467882 5.93775,17.094037 C5.4393125,17.2299431 4.911875,17.3006143 4.3699375,17.3006143 C3.9875,17.3006143 3.614125,17.2661847 3.2498125,17.1955135 C4.0074375,19.5584682 6.2041875,21.279946 8.80875,21.325248 C6.7715,22.9216921 4.2068125,23.8730351 1.4191875,23.8730351 C0.938875,23.8730351 0.4658125,23.8458538 0,23.7878672 C2.6335625,25.4767275 5.760125,26.4625 9.1205,26.4625 C20.064375,26.4625 26.0474375,17.3984667 26.0474375,9.53765573 C26.0474375,9.28034011 26.042,9.02302449 26.031125,8.76752096 C27.19475,7.92852707 28.2025,6.88114377 29,5.68879393" id="Fill-13"></path>
                </g>
            </g>
        </g>
    </g>
</svg>