<?xml version="1.0" encoding="UTF-8"?>
<svg width="604px" height="697px" viewBox="0 0 604 697" version="1.1" xmlns="http://www.w3.org/2000/svg" xmlns:xlink="http://www.w3.org/1999/xlink">
    <title>Group 3</title>
    <g id="ðŸ› ï¸-For-Devs---Templates---Parishes" stroke="none" stroke-width="1" fill="none" fill-rule="evenodd" opacity="0.12">
        <g id="Stories-with-Impact" transform="translate(-73.000000, -6957.000000)" fill="#64C9D3" fill-rule="nonzero">
            <g id="Group-3" transform="translate(73.000000, 6957.000000)">
                <g id="Group">
                    <path d="M302.422969,503.333333 C191.200222,503.333333 100.666667,412.799778 100.666667,301.577031 C100.666667,190.354284 191.200222,99.8207283 302.422969,99.8207283 C413.645716,99.8207283 504.179272,190.354284 504.179272,301.577031 C504.179272,412.799778 413.719082,503.333333 302.422969,503.333333 Z M302.422969,146.334727 C216.804931,146.334727 147.180665,215.958993 147.180665,301.577031 C147.180665,387.195069 216.804931,456.819335 302.422969,456.819335 C388.041007,456.819335 457.665273,387.195069 457.665273,301.577031 C457.665273,215.958993 388.041007,146.334727 302.422969,146.334727 Z" id="Shape"></path>
                    <path d="M301.963327,604 C135.469095,604 0,468.530905 0,301.963327 C0,135.39575 135.469095,0 301.963327,0 C468.457559,0 604,135.469095 604,301.963327 C604,468.457559 468.530905,604 301.963327,604 Z M301.963327,46.5010322 C161.066667,46.5010322 46.5010322,161.140012 46.5010322,301.963327 C46.5010322,442.786642 161.140012,557.425622 301.963327,557.425622 C442.859988,557.425622 557.425622,442.859988 557.425622,301.963327 C557.425622,161.066667 442.859988,46.5010322 301.963327,46.5010322 Z" id="Shape" opacity="0.25"></path>
                    <path d="M302,552.397759 C163.45349,552.397759 50.7563025,439.700572 50.7563025,301.154062 C50.7563025,162.607552 163.45349,49.9103641 302,49.9103641 C440.54651,49.9103641 553.243697,162.607552 553.243697,301.154062 C553.243697,439.700572 440.54651,552.397759 302,552.397759 Z M302,96.3366259 C189.08313,96.3366259 97.1825643,188.237191 97.1825643,301.154062 C97.1825643,414.070932 189.08313,505.971497 302,505.971497 C414.91687,505.971497 506.817436,414.070932 506.817436,301.154062 C506.817436,188.237191 414.990098,96.3366259 302,96.3366259 Z" id="Shape" opacity="0.55"></path>
                </g>
                <g id="Group" style="mix-blend-mode: multiply;" transform="translate(133.000000, 344.000000)">
                    <path d="M189.088897,284.839757 C185.394535,284.839757 182.161969,282.120296 181.648863,278.374623 C181.084446,274.269776 183.906529,270.472793 188.011375,269.857066 C197.042038,268.574302 205.867458,266.008772 214.128462,262.211789 C217.925445,260.467229 222.389466,262.109168 224.082715,265.906151 C225.827275,269.703134 224.185337,274.167155 220.388353,275.860404 C210.793274,280.273115 200.582468,283.249128 190.115109,284.737135 C189.807246,284.788446 189.448072,284.839757 189.088897,284.839757 Z M159.739244,284.480583 C159.38007,284.480583 158.969585,284.429272 158.610411,284.377961 C147.93781,282.787333 137.778314,279.913941 128.439788,275.911715 C124.642805,274.269776 122.846934,269.857066 124.540183,266.008772 C126.233433,262.160479 130.594832,260.415919 134.443126,262.109168 C142.550198,265.598288 151.47824,268.112506 160.868077,269.549203 C164.972923,270.16493 167.795005,274.013223 167.179278,278.11807 C166.666173,281.812432 163.433606,284.480583 159.739244,284.480583 Z M106.530169,261.031646 C104.785609,261.031646 103.041049,260.467229 101.655663,259.235775 C93.5999017,252.360157 86.6729729,244.304396 81.0288087,235.222422 C78.8224536,231.681992 79.8999759,227.06404 83.4404061,224.857685 C86.9808364,222.651329 91.5987889,223.728852 93.805144,227.269282 C98.6283388,235.01718 104.580367,241.944109 111.455985,247.793515 C114.637241,250.512976 114.996415,255.23355 112.276954,258.414806 C110.737637,260.159366 108.633903,261.031646 106.530169,261.031646 Z M241.990109,260.621161 C239.886375,260.621161 237.782641,259.748881 236.294634,258.004321 C233.575173,254.874376 233.934347,250.102492 237.064293,247.383031 C243.991222,241.379692 249.99456,234.452764 254.920376,226.756176 C257.178042,223.267056 261.847305,222.240845 265.336425,224.49851 C268.825544,226.756176 269.851756,231.425439 267.59409,234.914559 C261.898615,243.79129 254.920376,251.795741 246.967236,258.72267 C245.530539,260.005434 243.734669,260.621161 241.990109,260.621161 Z M75.5898869,211.876107 C72.3060095,211.876107 69.2786851,209.669752 68.3550946,206.385874 C65.5330125,196.329 64.1476267,185.861641 64.1476267,175.24035 C64.1476267,171.084193 67.4828147,167.697695 71.6389719,167.697695 L71.6389719,167.697695 C75.7951292,167.697695 79.1816277,171.032882 79.1816277,175.18904 C79.1816277,184.424945 80.4643923,193.558229 82.8759897,202.332338 C84.0048225,206.334564 81.6445357,210.490721 77.6423102,211.619554 C76.9752726,211.773486 76.2569244,211.876107 75.5898869,211.876107 Z M273.443497,211.670865 C272.725149,211.670865 272.058111,211.568243 271.339763,211.363001 C267.388848,210.182858 265.079872,206.0267 266.260015,202.024475 C268.825544,193.301676 270.108309,184.271013 270.108309,175.086419 L270.108309,174.829866 C270.108309,170.673708 273.443497,167.28721 277.650965,167.28721 C281.858432,167.28721 285.19362,170.622398 285.19362,174.829866 L285.19362,175.086419 C285.19362,185.707709 283.705613,196.175068 280.7296,206.283253 C279.703388,209.567131 276.676063,211.670865 273.443497,211.670865 Z M75.5385763,153.587284 C74.8715387,153.587284 74.2045011,153.484663 73.5374635,153.330731 C69.535238,152.253209 67.1749512,148.097052 68.2524734,144.043516 C71.0745555,133.730088 75.2820234,123.981077 80.8235664,115.104346 C83.0299215,111.563916 87.647874,110.486394 91.1883042,112.692749 C94.7287345,114.899104 95.8062567,119.517057 93.5999017,123.057487 C88.879328,130.702764 85.184966,139.1177 82.7733685,148.045741 C81.9010886,151.380929 78.8737642,153.587284 75.5385763,153.587284 Z M273.392186,153.279421 C270.159619,153.279421 267.132295,151.175687 266.157394,147.891809 C263.591865,139.16901 259.743571,130.856696 254.766444,123.160108 C252.508779,119.670988 253.48368,115.001725 257.02411,112.74406 C260.51323,110.486394 265.182493,111.461295 267.440158,115.001725 C273.186944,123.929767 277.650965,133.524846 280.626978,143.633031 C281.807122,147.583946 279.549456,151.791414 275.547231,152.971557 C274.777572,153.176799 274.059224,153.279421 273.392186,153.279421 Z M241.784867,104.431745 C240.040307,104.431745 238.295747,103.867329 236.859051,102.635875 C229.932122,96.6325364 222.235534,91.7067204 213.92322,87.9610478 C210.126237,86.2677986 208.484298,81.7524672 210.177547,78.0067946 C211.870797,74.2098115 216.386128,72.5678728 220.1318,74.261122 C229.72688,78.6225216 238.654921,84.3179964 246.659372,91.2449252 C249.789318,93.9643861 250.148492,98.7362703 247.429031,101.866216 C245.992335,103.559465 243.888601,104.431745 241.784867,104.431745 Z M106.324926,104.329124 C104.221192,104.329124 102.117459,103.456844 100.629452,101.712284 C97.9099907,98.531028 98.2691648,93.8104543 101.39911,91.0909934 C109.352251,84.2666858 118.382913,78.6225216 128.183235,74.3637432 C131.980218,72.7218045 136.444239,74.4663644 138.086178,78.2633475 C139.728116,82.0603307 137.983556,86.5243515 134.186573,88.1662902 C125.720327,91.8606522 117.972429,96.683847 111.199432,102.533254 C109.814046,103.713397 108.069486,104.329124 106.324926,104.329124 Z M159.482691,80.7775661 C155.839639,80.7775661 152.607073,78.1094158 152.042656,74.3637432 C151.426929,70.2588965 154.249011,66.4106028 158.353858,65.7948758 C163.433606,65.025217 168.718596,64.5121112 174.054897,64.3068688 L174.36276,64.3068688 C179.545129,64.3068688 184.778808,64.6660429 189.909867,65.3843911 C194.014714,65.9488075 196.888106,69.7971013 196.32369,73.901948 C195.759273,78.0067946 191.96229,80.8801873 187.806133,80.3157709 C183.444733,79.7000439 178.980713,79.3921804 174.516692,79.3921804 C169.796118,79.5974227 165.126855,80.059218 160.611524,80.7262556 C160.25235,80.7262556 159.841865,80.7775661 159.482691,80.7775661 Z" id="Shape"></path>
                    <path d="M166.820104,319.987506 C166.614862,319.987506 166.40962,319.987506 166.204377,319.936196 C163.536227,319.730953 160.868077,319.42309 158.302547,319.115226 C154.197701,318.602121 151.272997,314.856448 151.786103,310.700291 C152.299209,306.595444 156.044882,303.670741 160.201039,304.183847 C162.561326,304.49171 165.024234,304.748263 167.435831,304.953505 C171.591989,305.312679 174.670624,308.90442 174.311449,313.060577 C174.003586,317.011492 170.719709,319.987506 166.820104,319.987506 Z M191.141321,319.525711 C187.395648,319.525711 184.163081,316.703629 183.649976,312.906646 C183.13687,308.801799 186.112884,305.056126 190.21773,304.543021 C192.578017,304.286468 194.989615,303.875983 197.349901,303.516809 C201.454748,302.798461 205.354352,305.517922 206.072701,309.622768 C206.791049,313.727615 204.071588,317.627219 199.966741,318.345568 C197.349901,318.807363 194.681751,319.217848 192.013601,319.525711 C191.705737,319.4744 191.449184,319.525711 191.141321,319.525711 Z M135.366717,314.394653 C134.699679,314.394653 133.981331,314.292031 133.314293,314.1381 C130.748764,313.419752 128.183235,312.650093 125.669016,311.777813 C121.718101,310.443738 119.614367,306.133649 120.948443,302.234044 C122.282518,298.33444 126.541296,296.179396 130.492211,297.513471 C132.749877,298.283129 135.058853,299.001478 137.367829,299.668515 C141.370055,300.797348 143.679031,304.953505 142.550198,308.955731 C141.677918,312.239608 138.650594,314.394653 135.366717,314.394653 Z M222.184224,312.034366 C219.156899,312.034366 216.232196,310.135874 215.154674,307.10855 C213.717978,303.208945 215.71909,298.898856 219.618695,297.46216 C221.87636,296.641191 224.082715,295.768911 226.289071,294.79401 C230.086054,293.152071 234.550074,294.896631 236.192013,298.693614 C237.833952,302.490597 236.089392,306.954618 232.292409,308.596557 C229.880811,309.674079 227.315282,310.64898 224.852374,311.572571 C223.877473,311.880434 223.056504,312.034366 222.184224,312.034366 Z M105.811821,302.336666 C104.580367,302.336666 103.297602,302.028802 102.168769,301.361764 C99.8597928,300.079 97.499506,298.693614 95.2418403,297.256918 C91.7014101,295.050563 90.6751984,290.3813 92.8815535,286.89218 C95.0879086,283.40306 99.7571717,282.325538 103.246291,284.531893 C105.247404,285.814658 107.351138,287.046112 109.454872,288.174945 C113.097923,290.176057 114.431999,294.742699 112.379575,298.385751 C111.0455,300.899969 108.479971,302.336666 105.811821,302.336666 Z M250.661598,297.667402 C248.25,297.667402 245.838403,296.487259 244.401706,294.332215 C242.09273,290.843095 243.067631,286.173832 246.50544,283.864855 C248.506553,282.53078 250.456355,281.145395 252.406157,279.708698 C255.741345,277.19448 260.461919,277.912828 262.924827,281.248016 C265.439046,284.583204 264.720698,289.303777 261.38551,291.766685 C259.281776,293.357313 257.02411,294.896631 254.817755,296.384638 C253.48368,297.205607 252.046983,297.667402 250.661598,297.667402 Z M80.0539076,283.556992 C78.2067266,283.556992 76.3595456,282.889954 74.9228493,281.504569 C72.9730471,279.657388 71.0232449,277.758896 69.2273745,275.809094 C66.3539818,272.781769 66.5079136,268.009885 69.535238,265.187803 C72.5625624,262.365721 77.3344467,262.468342 80.1565288,265.495667 C81.7984675,267.188916 83.4917167,268.933476 85.2362766,270.524104 C88.263601,273.397496 88.4175327,278.11807 85.5954506,281.145395 C84.0561331,282.787333 82.0037098,283.556992 80.0539076,283.556992 Z M274.982814,277.040548 C273.135633,277.040548 271.288452,276.37351 269.851756,274.988125 C266.824431,272.114732 266.6705,267.394158 269.492582,264.366834 C271.13452,262.622274 272.725149,260.826404 274.264466,258.979223 C276.932616,255.797966 281.704501,255.387482 284.885757,258.055632 C288.067013,260.723782 288.477498,265.495667 285.809347,268.676923 C284.116098,270.729346 282.320228,272.730459 280.473047,274.680261 C278.98504,276.219579 276.983927,277.040548 274.982814,277.040548 Z M59.6322954,259.030533 C57.1180768,259.030533 54.75779,257.799079 53.2697831,255.541413 C51.8330867,253.283748 50.447701,250.974771 49.1136258,248.614485 C47.0612025,244.971433 48.3952776,240.404791 51.9870185,238.352368 C55.6300699,236.299945 60.1967118,237.63402 62.2491352,241.225761 C63.4292786,243.278184 64.6607326,245.381918 65.9434972,247.383031 C68.2011628,250.87215 67.1236406,255.541413 63.6345209,257.747769 C62.4543775,258.620048 61.0689917,259.030533 59.6322954,259.030533 Z M294.019041,251.385256 C292.736276,251.385256 291.453512,251.026082 290.273368,250.359044 C286.681627,248.306621 285.450173,243.688669 287.502597,240.096928 C288.68274,238.044504 289.811573,235.88946 290.940406,233.785726 C292.838897,230.040053 297.302918,228.603357 301.048591,230.450538 C304.794263,232.34903 306.23096,236.81305 304.383779,240.558723 C303.203635,242.97032 301.86956,245.330607 300.586795,247.639584 C299.150099,249.99987 296.58457,251.385256 294.019041,251.385256 Z M45.7784379,230.245296 C42.6484923,230.245296 39.723789,228.295494 38.6462668,225.165548 C37.7739868,222.651329 36.9530175,220.0858 36.2346693,217.520271 C35.1058365,213.518046 37.4148128,209.361888 41.4170383,208.233055 C45.4192638,207.104223 49.575421,209.413199 50.7042539,213.415424 C51.3712915,215.724401 52.0896396,218.033377 52.8592984,220.291043 C54.1933736,224.190647 52.1409502,228.500736 48.1900353,229.886122 C47.4203765,230.091364 46.5994072,230.245296 45.7784379,230.245296 Z M306.590134,222.035602 C305.871785,222.035602 305.153437,221.932981 304.4864,221.727739 C300.535485,220.547596 298.226509,216.340128 299.406652,212.389213 C300.07369,210.080236 300.689417,207.77126 301.253833,205.462284 C302.228734,201.408748 306.28227,198.894529 310.284496,199.86943 C314.338032,200.844331 316.85225,204.897868 315.877349,208.900093 C315.261622,211.516933 314.543274,214.082462 313.824926,216.699302 C312.850025,219.880558 309.8227,222.035602 306.590134,222.035602 Z M38.8001985,199.048461 C35.0032153,199.048461 31.7706486,196.175068 31.3088533,192.378085 C31.0523004,189.761245 30.7957475,187.041784 30.6418157,184.373634 C30.3852628,180.217477 33.566519,176.677047 37.7226763,176.420494 C41.8788335,176.163941 45.4192638,179.345197 45.6758167,183.501354 C45.8297484,185.912952 46.0349908,188.324549 46.2915437,190.684836 C46.753339,194.840993 43.7773251,198.535355 39.6211679,198.99715 C39.3646149,199.048461 39.0567514,199.048461 38.8001985,199.048461 Z M311.977745,190.582215 C311.823813,190.582215 311.721192,190.582215 311.56726,190.582215 C307.411103,190.376972 304.229847,186.785232 304.435089,182.680385 C304.589021,180.320098 304.640331,177.908501 304.640331,175.496903 L304.640331,175.137729 C304.640331,170.981572 307.975519,167.595073 312.182987,167.595073 C316.339144,167.595073 319.725643,170.930261 319.725643,175.137729 L319.725643,175.496903 C319.725643,178.165054 319.623022,180.884514 319.520401,183.552665 C319.315158,187.452269 315.97997,190.582215 311.977745,190.582215 Z M38.7488879,167.133278 C38.492335,167.133278 38.2357821,167.133278 37.9279186,167.081968 C33.7717613,166.620172 30.7957475,162.92581 31.2575427,158.769653 C31.5140957,156.101503 31.9245803,153.433352 32.335065,150.816513 C33.0021026,146.711666 36.8503963,143.940894 40.955243,144.556621 C45.0600897,145.223659 47.8308612,149.071953 47.2151342,153.176799 C46.8046495,155.537086 46.496786,157.948684 46.2402331,160.360281 C45.8297484,164.259885 42.5971817,167.133278 38.7488879,167.133278 Z M310.027943,158.359168 C306.436202,158.359168 303.306256,155.793639 302.639219,152.150588 C302.228734,149.790301 301.715628,147.430014 301.151212,145.121038 C300.176311,141.067502 302.690529,137.013966 306.744065,136.039065 C310.797601,135.064163 314.851138,137.578382 315.826039,141.631918 C316.441766,144.197447 317.006182,146.865598 317.467977,149.482437 C318.186325,153.587284 315.466865,157.486888 311.413328,158.205237 C310.900223,158.359168 310.438427,158.359168 310.027943,158.359168 Z M45.6758167,135.987754 C44.8548474,135.987754 44.033878,135.833822 43.2642193,135.577269 C39.3646149,134.243194 37.260881,129.933105 38.5949562,126.033501 C39.4672361,123.467972 40.3908266,120.953753 41.4170383,118.490845 C43.0076664,114.642551 47.369066,112.79537 51.2173597,114.334688 C55.0656535,115.925316 56.9128345,120.286715 55.373517,124.135009 C54.5012371,126.341364 53.6289571,128.59903 52.8592984,130.856696 C51.7304655,133.986641 48.8057623,135.987754 45.6758167,135.987754 Z M300.740727,127.829371 C297.867334,127.829371 295.096563,126.136122 293.865109,123.31404 C292.890208,121.107685 291.863996,118.95264 290.786474,116.797596 C288.887982,113.103234 290.375989,108.587902 294.121662,106.689411 C297.867334,104.790919 302.331355,106.278926 304.229847,110.024599 C305.40999,112.384886 306.590134,114.847794 307.667656,117.259391 C309.360905,121.056374 307.616345,125.520395 303.819362,127.162334 C302.74184,127.624129 301.715628,127.829371 300.740727,127.829371 Z M59.4783637,107.202517 C58.0929779,107.202517 56.7075921,106.792032 55.4248276,106.022373 C51.9357079,103.764708 50.9094962,99.146755 53.1158513,95.6576353 C54.5525476,93.3999697 56.0405546,91.142304 57.6311826,88.9872595 C60.0427801,85.600761 64.7633537,84.8311022 68.1498523,87.2940102 C71.4850402,89.7056077 72.3060095,94.4261813 69.8431015,97.8126798 C68.4577158,99.762482 67.1236406,101.712284 65.840876,103.764708 C64.4041797,105.971063 61.9412717,107.202517 59.4783637,107.202517 Z M284.629204,100.275588 C282.320228,100.275588 280.113873,99.2493762 278.625866,97.299574 C277.189169,95.4010824 275.701162,93.5025908 274.161845,91.6554098 C271.493695,88.4741537 271.904179,83.75358 275.034125,81.0341191 C278.215381,78.3659687 282.935955,78.7764534 285.655416,81.906399 C287.399975,83.9588223 289.093225,86.0625562 290.683853,88.1662902 C293.198071,91.5014781 292.479723,96.2220518 289.195846,98.6849598 C287.81046,99.8137926 286.168521,100.275588 284.629204,100.275588 Z M79.7460441,82.5734366 C77.7449314,82.5734366 75.7438186,81.8037778 74.2558117,80.2131497 C71.382419,77.1858253 71.5363508,72.413941 74.5636752,69.5918589 C76.5134774,67.7959885 78.5145901,65.9488075 80.5670135,64.2555583 C83.7482696,61.5874079 88.4688433,61.9978926 91.1883042,65.2304593 C93.8564546,68.4117155 93.4459699,73.1322892 90.2134031,75.8517501 C88.4175327,77.3910676 86.5703517,78.9816957 84.8771025,80.6236344 C83.4917167,81.8550884 81.6445357,82.5734366 79.7460441,82.5734366 Z M262.565653,77.1858253 C260.872404,77.1858253 259.127844,76.6214089 257.742458,75.4412655 C255.895277,73.901948 253.996786,72.413941 252.098294,70.9772447 C248.763106,68.5143367 248.044758,63.793763 250.507666,60.4585751 C252.970574,57.1233872 257.691148,56.405039 261.026336,58.867947 C263.130069,60.4585751 265.285114,62.1005138 267.337537,63.8450736 C270.518793,66.5132239 270.980589,71.2337976 268.312438,74.4663644 C266.875742,76.2622348 264.772008,77.1858253 262.565653,77.1858253 Z M105.555268,63.7424524 C102.938428,63.7424524 100.372899,62.3570667 98.9875129,59.8941587 C96.9864002,56.2511072 98.2691648,51.6844653 101.912216,49.632042 C104.221192,48.3492774 106.63279,47.0665128 109.044387,45.93768 C112.79006,44.1418095 117.254081,45.681127 119.101262,49.4267996 C120.897132,53.1724722 119.357815,57.636493 115.612142,59.483674 C113.457097,60.5098857 111.353364,61.6387185 109.24963,62.7675513 C108.018176,63.4345889 106.786722,63.7424524 105.555268,63.7424524 Z M235.832839,59.7402269 C234.704006,59.7402269 233.575173,59.483674 232.497651,58.9705682 C230.393917,57.8930459 228.136252,56.9181448 225.929896,55.9432437 C222.132913,54.3013051 220.337043,49.8885949 221.978981,46.0403011 C223.62092,42.1920074 228.03363,40.4474475 231.881924,42.0893862 C234.344832,43.1669085 236.80774,44.2957413 239.168027,45.4758847 C242.9137,47.3230657 244.401706,51.8383971 242.554525,55.5327591 C241.271761,58.2009094 238.603611,59.7402269 235.832839,59.7402269 Z M135.007543,51.5818441 C131.723665,51.5818441 128.696341,49.4267996 127.77275,46.1429223 C126.643917,42.1406968 128.952894,37.9845395 132.955119,36.8557067 C135.520648,36.1373585 138.086178,35.4703209 140.703017,34.8545939 C144.756553,33.8796928 148.810089,36.445222 149.73368,40.4987581 C150.708581,44.5522942 148.143052,48.6058303 144.089516,49.5294208 C141.729229,50.0938372 139.368942,50.6582536 137.111276,51.3252912 C136.392928,51.479223 135.725891,51.5818441 135.007543,51.5818441 Z M205.764837,48.9650044 C205.200421,48.9650044 204.636004,48.9136938 204.071588,48.7597621 C201.762612,48.2466562 199.351014,47.7335504 197.042038,47.3230657 C192.937191,46.6047175 190.21773,42.7051132 190.936078,38.6002665 C191.654427,34.4954198 195.50272,31.7759589 199.658878,32.4943071 C202.275717,32.9561023 204.943868,33.4692082 207.509397,34.0849352 C211.562933,35.0085257 214.077152,39.0620618 213.153561,43.1155979 C212.332592,46.6047175 209.202646,48.9650044 205.764837,48.9650044 Z M166.46093,45.93768 C162.612636,45.93768 159.277448,42.9616661 158.969585,39.0620618 C158.610411,34.9059045 161.689046,31.2628531 165.845203,30.9549896 C168.410732,30.7497473 171.078883,30.5445049 173.747033,30.4418838 C177.85188,30.287952 181.39231,33.4692082 181.597552,37.6253654 C181.751484,41.7815227 178.570228,45.2706424 174.414071,45.4758847 C171.951163,45.5785059 169.488255,45.7324376 167.127968,45.93768 C166.871415,45.93768 166.666173,45.93768 166.46093,45.93768 Z" id="Shape"></path>
                    <path d="M175.440282,352.672348 L173.695722,352.621037 C169.539565,352.415795 166.358309,348.926675 166.512241,344.770518 C166.717483,340.614361 170.257913,337.433105 174.36276,337.587036 L175.594214,337.638347 C178.929402,337.638347 182.3159,337.535726 185.651088,337.330483 C189.807246,337.125241 193.398987,340.203876 193.604229,344.360033 C193.860782,348.516191 190.730836,352.107932 186.574679,352.313174 C182.931627,352.569727 179.185955,352.672348 175.440282,352.672348 Z M143.935584,349.183228 C143.473789,349.183228 143.011994,349.131918 142.550198,349.029297 C138.394041,348.259638 134.289194,347.336047 130.235658,346.309836 C126.182122,345.283624 123.770525,341.178777 124.796736,337.176552 C125.822948,333.123016 129.927795,330.711418 133.93002,331.73763 C137.675693,332.712531 141.472676,333.5335 145.32097,334.251848 C149.425816,335.021507 152.093967,338.972422 151.324308,343.025958 C150.65727,346.66901 147.476014,349.183228 143.935584,349.183228 Z M216.078264,347.746532 C212.691766,347.746532 209.664441,345.437556 208.792162,342.051057 C207.76595,337.997521 210.228858,333.943985 214.282394,332.969084 C218.028067,332.045493 221.773739,330.967971 225.416791,329.787828 C229.367706,328.505063 233.626484,330.660108 234.909249,334.611023 C236.192013,338.561937 234.036969,342.820716 230.086054,344.10348 C226.083828,345.386245 221.978981,346.566388 217.925445,347.5926 C217.309718,347.695221 216.693991,347.746532 216.078264,347.746532 Z M103.451534,336.714756 C102.425322,336.714756 101.39911,336.509514 100.424209,336.047719 C96.5759155,334.303159 92.7276217,332.455978 89.0332597,330.454865 C85.3902083,328.505063 84.0048225,323.938421 85.9546247,320.244059 C87.9044269,316.601008 92.4710688,315.215622 96.1654308,317.165424 C99.5006188,318.961295 103.041049,320.705854 106.530169,322.245172 C110.327152,323.938421 112.020401,328.351131 110.327152,332.199425 C109.095698,335.021507 106.324926,336.714756 103.451534,336.714756 Z M255.587414,332.507289 C252.919263,332.507289 250.302424,331.070592 248.968348,328.556374 C246.967236,324.913322 248.352621,320.34668 251.995673,318.345568 C255.382171,316.549697 258.717359,314.548584 262.001237,312.496161 C265.490356,310.238495 270.159619,311.316018 272.365974,314.805137 C274.62364,318.294257 273.546118,322.96352 270.056998,325.169875 C266.516568,327.427541 262.822206,329.582585 259.127844,331.583698 C258.050322,332.199425 256.818868,332.507289 255.587414,332.507289 Z M67.3288829,314.599895 C65.6356337,314.599895 63.993695,314.035479 62.6083092,312.906646 C59.3244319,310.238495 56.1431757,307.416413 53.0645407,304.49171 C50.0372163,301.618317 49.9345951,296.897744 52.8079878,293.870419 C55.6813805,290.843095 60.4019542,290.740474 63.4292786,293.613866 C66.2000501,296.282017 69.1247533,298.796235 72.1007672,301.207833 C75.3333339,303.824672 75.8464398,308.545246 73.1782894,311.777813 C71.7415931,313.624994 69.5865486,314.599895 67.3288829,314.599895 Z M290.068126,307.878209 C288.067013,307.878209 286.01459,307.057239 284.526583,305.466611 C281.704501,302.439287 281.909743,297.667402 284.937067,294.84532 C287.759149,292.228481 290.529921,289.50902 293.146761,286.686938 C296.020153,283.659613 300.740727,283.505681 303.768052,286.327764 C306.795376,289.201156 306.949308,293.92173 304.127226,296.949054 C301.253833,299.976379 298.226509,303.003703 295.147874,305.877096 C293.711177,307.211171 291.863996,307.878209 290.068126,307.878209 Z M38.4410244,283.659613 C36.0807376,283.659613 33.7717613,282.582091 32.335065,280.478357 C29.9234676,277.040548 27.5631807,273.500118 25.3568256,269.857066 C23.2017811,266.316636 24.330614,261.698683 27.9223548,259.543639 C31.4627851,257.388594 36.0807376,258.517427 38.2357821,262.109168 C40.2368949,265.393045 42.3406288,268.676923 44.5469839,271.806868 C46.9585813,275.193367 46.1889225,279.913941 42.802424,282.325538 C41.4683489,283.249128 39.9290314,283.659613 38.4410244,283.659613 Z M317.314046,275.50123 C315.92866,275.50123 314.491963,275.090746 313.209199,274.321087 C309.720079,272.063421 308.745178,267.394158 311.002844,263.905039 C313.106578,260.672472 315.10769,257.337284 316.954871,253.950785 C318.955984,250.307734 323.522626,248.973659 327.165678,250.974771 C330.808729,252.975884 332.142804,257.542526 330.141691,261.185578 C328.140579,264.828629 325.934224,268.522991 323.625247,272.063421 C322.239862,274.269776 319.828264,275.50123 317.314046,275.50123 Z M18.5838286,246.254198 C15.5565042,246.254198 12.6831115,244.407017 11.5542787,241.379692 C10.0662718,237.480088 8.7321966,233.426552 7.5007426,229.373016 C6.32059918,225.422101 8.57826485,221.214633 12.5804904,219.983179 C16.5314053,218.803036 20.7388731,221.060701 21.9703271,225.062927 C23.09916,228.808599 24.330614,232.502961 25.6646891,236.043392 C27.1013855,239.942996 25.1515833,244.253085 21.251979,245.741092 C20.379699,246.100266 19.4561085,246.254198 18.5838286,246.254198 Z M335.734545,237.326156 C334.964886,237.326156 334.143917,237.223535 333.374258,236.915672 C329.423343,235.581596 327.319609,231.322818 328.602374,227.371903 C329.833828,223.728852 330.91135,219.983179 331.886251,216.237506 C332.912463,212.18397 337.01731,209.823684 341.019535,210.798585 C345.073071,211.824796 347.484669,215.929643 346.458457,219.931868 C345.432245,224.036715 344.200791,228.090251 342.866716,232.092477 C341.840504,235.376354 338.864491,237.326156 335.734545,237.326156 Z M8.57826485,205.051799 C4.83259226,205.051799 1.6000255,202.229717 1.08691967,198.432734 C0.573813832,194.276577 0.214639747,190.017798 0.00939741338,185.81033 C-0.19584492,181.654173 2.98541125,178.113743 7.14156852,177.908501 C11.2977258,177.651948 14.838156,180.884514 15.0433984,185.040672 C15.2486407,188.888966 15.5565042,192.78857 16.0182995,196.636864 C16.5314053,200.74171 13.5553914,204.487383 9.45054477,205.000489 C9.19399185,205.051799 8.88612835,205.051799 8.57826485,205.051799 Z M343.995549,195.815894 C343.841617,195.815894 343.636375,195.815894 343.482443,195.764584 C339.326286,195.45672 336.19634,191.864979 336.504204,187.708822 C336.760757,183.860528 336.914688,179.960924 336.914688,176.11263 L336.914688,175.702146 C336.914688,171.545988 340.249876,168.15949 344.457344,168.15949 C348.613501,168.15949 352,171.494678 352,175.702146 L352,176.11263 C352,180.320098 351.846068,184.578876 351.538205,188.786344 C351.230341,192.78857 347.946464,195.815894 343.995549,195.815894 Z M8.57826485,162.720568 C8.32171194,162.720568 8.01384843,162.669257 7.70598493,162.669257 C3.60113826,162.207462 0.625124415,158.46179 1.08691967,154.305632 C1.54871492,150.149475 2.2157525,145.942007 2.98541125,141.78585 C3.75507001,137.681003 7.70598493,135.012853 11.759521,135.782512 C15.8643677,136.55217 18.532518,140.503085 17.7628593,144.556621 C17.0445111,148.353605 16.4800947,152.201898 16.0182995,156.050192 C15.6078148,159.898486 12.3239374,162.720568 8.57826485,162.720568 Z M341.686573,153.125489 C338.146142,153.125489 334.964886,150.55996 334.297849,146.968219 C333.579501,143.171236 332.758531,139.374252 331.78363,135.67989 C330.757418,131.626354 333.169016,127.572818 337.171241,126.495296 C341.173467,125.469084 345.278314,127.880682 346.355836,131.882907 C347.433358,135.936443 348.305638,140.092601 349.075297,144.248758 C349.844955,148.353605 347.125495,152.253209 343.020648,153.022868 C342.558853,153.022868 342.148368,153.125489 341.686573,153.125489 Z M18.4298969,121.518169 C17.557617,121.518169 16.685337,121.364238 15.8130571,121.056374 C11.9134528,119.619678 9.91234002,115.258278 11.4003469,111.358674 C12.8883539,107.407759 14.5302925,103.456844 16.2748524,99.6598609 C18.0194122,95.8628777 22.483433,94.220939 26.2291056,95.9654988 C30.0260887,97.7100587 31.6680274,102.174079 29.9234676,105.919752 C28.3328395,109.408872 26.793522,113.000613 25.4594468,116.592353 C24.3819246,119.619678 21.5085319,121.518169 18.4298969,121.518169 Z M328.858927,112.74406 C325.985534,112.74406 323.266073,111.102121 322.034619,108.38266 C320.443991,104.89354 318.699431,101.455731 316.80094,98.0692328 C314.799827,94.4261813 316.082592,89.8595394 319.725643,87.8584267 C323.368694,85.8573139 327.935336,87.1400785 329.936449,90.7831299 C331.988872,94.4774919 333.887364,98.2744751 335.683234,102.071458 C337.427794,105.868441 335.785856,110.332462 332.040183,112.077022 C331.013971,112.487507 329.936449,112.74406 328.858927,112.74406 Z M38.1844715,84.0101329 C36.6964646,84.0101329 35.1571471,83.5483376 33.8230719,82.6247471 C30.4365734,80.2131497 29.6156041,75.5438866 32.0272015,72.1060775 C34.4387989,68.6682684 37.0556387,65.2304593 39.7750996,62.0492032 C42.4432499,58.867947 47.1638236,58.4061517 50.3963904,61.0229915 C53.5776466,63.6911418 54.0394418,68.4117155 51.422602,71.6442823 C49.0110046,74.5689855 46.6507178,77.6476205 44.4443627,80.7775661 C42.9050452,82.9326106 40.5447584,84.0101329 38.1844715,84.0101329 Z M306.384891,76.8266512 C304.178536,76.8266512 302.023492,75.8517501 300.586795,74.0558797 C298.175198,71.0798659 295.558358,68.1551626 292.941518,65.3330805 C290.068126,62.3057561 290.222058,57.5338718 293.249382,54.7117897 C296.276706,51.8383971 301.048591,51.9923288 303.870673,55.0196532 C306.744065,58.0469777 309.566147,61.2795444 312.234298,64.5634218 C314.851138,67.7959885 314.389342,72.5165622 311.156776,75.133402 C309.77139,76.2622348 308.078141,76.8266512 306.384891,76.8266512 Z M67.0210194,53.0185405 C64.8146643,53.0185405 62.6596198,52.0436394 61.2229235,50.247769 C58.6060837,47.0152022 59.067879,42.2946285 62.3004457,39.6777888 C65.5330125,37.0096384 68.9708216,34.4441093 72.4599413,32.0325118 C75.8977504,29.672225 80.5670135,30.4931943 82.9273003,33.9310034 C85.2875871,37.3688125 84.4666178,42.0380756 81.0288087,44.3983625 C77.8475525,46.6047175 74.7689175,48.9136938 71.7929037,51.3766018 C70.4075179,52.5054346 68.7142687,53.0185405 67.0210194,53.0185405 Z M275.701162,47.6309292 C274.161845,47.6309292 272.571217,47.169134 271.237142,46.1429223 C268.107196,43.833946 264.92594,41.6275909 261.642063,39.5751676 C258.152943,37.3688125 257.075421,32.6995494 259.333086,29.2104298 C261.539441,25.7213101 266.208704,24.6437878 269.697824,26.9014535 C273.238254,29.1591192 276.727374,31.5707166 280.165183,34.0849352 C283.500371,36.5478432 284.218719,41.2684169 281.755811,44.6036048 C280.267804,46.553407 278.010139,47.6309292 275.701162,47.6309292 Z M103.09236,30.8523684 C100.218967,30.8523684 97.4481954,29.2104298 96.2167414,26.3883477 C94.5234922,22.5913645 96.2167414,18.1273437 100.013725,16.4340945 C103.810708,14.7408452 107.761623,13.1502171 111.763848,11.6622102 C115.663453,10.2255139 119.973542,12.2266266 121.410238,16.126231 C122.846934,20.0258353 120.845821,24.3359243 116.946217,25.7726207 C113.303166,27.1066958 109.711425,28.5947027 106.170995,30.1340203 C105.144783,30.6471261 104.118571,30.8523684 103.09236,30.8523684 Z M238.757542,26.9527641 C237.782641,26.9527641 236.859051,26.7988323 235.93546,26.3883477 C232.343719,24.9516513 228.700668,23.6175762 225.057617,22.4374327 C221.106702,21.1546681 218.951657,16.9472003 220.234422,12.9962854 C221.517186,9.04537045 225.724654,6.89032594 229.675569,8.17309053 C233.677795,9.45585512 237.68002,10.8925515 241.579624,12.5344901 C245.427918,14.1251182 247.275099,18.4865178 245.735782,22.3348116 C244.555638,25.1568937 241.733556,26.9527641 238.757542,26.9527641 Z M143.473789,18.2812755 C139.933359,18.2812755 136.803413,15.7670569 136.085065,12.175316 C135.315406,8.07046936 137.983556,4.11955444 142.088403,3.40120627 C146.141939,2.63154751 150.298096,1.96450993 154.505564,1.40009351 C158.661721,0.886987677 162.407394,3.76038035 162.9205,7.91653761 C163.433606,12.0213843 160.560213,15.8183675 156.404056,16.3314733 C152.504451,16.8445791 148.656158,17.4603061 144.859175,18.1786543 C144.397379,18.2299649 143.935584,18.2812755 143.473789,18.2812755 Z M197.760386,16.126231 C197.401212,16.126231 197.093349,16.0749204 196.785485,16.0749204 C192.937191,15.5618145 189.088897,15.2026405 185.240604,14.9973981 C181.084446,14.7408452 177.954501,11.200415 178.211054,7.04425769 C178.467607,2.88810043 182.008037,-0.24184516 186.164194,0.0147077577 C190.371662,0.271260675 194.57913,0.681745343 198.786598,1.19485118 C202.891444,1.70795701 205.816148,5.50494019 205.251731,9.66109745 C204.738625,13.40677 201.506059,16.126231 197.760386,16.126231 Z" id="Shape"></path>
                </g>
            </g>
        </g>
    </g>
</svg>