<?xml version="1.0" encoding="UTF-8"?>
<svg width="19px" height="20px" viewBox="0 0 19 20" version="1.1" xmlns="http://www.w3.org/2000/svg" xmlns:xlink="http://www.w3.org/1999/xlink">
    <title>Icons / Close</title>
    <g id="ðŸ› ï¸-For-Devs---Templates---Parishes" stroke="none" stroke-width="1" fill="none" fill-rule="evenodd">
        <g id="Mobile-Nav" transform="translate(-358.000000, -31.000000)" fill="#FFFFFF">
            <g id="Icons-/-Close" transform="translate(349.000000, 22.100000)">
                <path d="M9.39540585,9.39540585 C9.92261364,8.86819805 10.7773864,8.86819805 11.3045942,9.39540585 L11.3045942,9.39540585 L18.514,16.605 L25.7233279,9.39540585 C26.2153885,8.90334524 26.9927946,8.8705412 27.5229012,9.29699372 L27.6325162,9.39540585 C28.159724,9.92261364 28.159724,10.7773864 27.6325162,11.3045942 L27.6325162,11.3045942 L20.423,18.514 L27.6325162,25.7233279 C28.1245768,26.2153885 28.1573809,26.9927946 27.7309283,27.5229012 L27.6325162,27.6325162 C27.1053084,28.159724 26.2505357,28.159724 25.7233279,27.6325162 L25.7233279,27.6325162 L18.514,20.423 L11.3045942,27.6325162 C10.8125335,28.1245768 10.0351275,28.1573809 9.50502082,27.7309283 L9.39540585,27.6325162 C8.86819805,27.1053084 8.86819805,26.2505357 9.39540585,25.7233279 L9.39540585,25.7233279 L16.605,18.514 L9.39540585,11.3045942 C8.90334524,10.8125335 8.8705412,10.0351275 9.29699372,9.50502082 Z" id="Shape"></path>
            </g>
        </g>
    </g>
</svg>