<?xml version="1.0" encoding="UTF-8"?>
<svg width="888px" height="72px" viewBox="0 0 888 72" version="1.1" xmlns="http://www.w3.org/2000/svg" xmlns:xlink="http://www.w3.org/1999/xlink">
    <title>PRX-ETS-Black-Reversed</title>
    <g id="ðŸ› ï¸-For-Devs---Templates---Parishes" stroke="none" stroke-width="1" fill="none" fill-rule="evenodd">
        <g id="Expand-the-Story" transform="translate(-241.000000, -209.000000)" fill="#FFFFFF" fill-rule="nonzero">
            <g id="Group" transform="translate(241.000000, 209.000000)">
                <path d="M182.15604,34.4428366 C182.15604,40.2389786 180.446669,44.7187086 177.027928,47.8623788 C173.609187,51.0256969 168.756146,52.597532 162.468806,52.597532 L158.539218,52.597532 L158.539218,69.8091264 L144.530237,69.8091264 L144.530237,17.958216 L162.468806,17.958216 C169.011569,17.958216 173.943202,19.3925155 177.224408,22.2414667 C180.505613,25.1100657 182.15604,29.177189 182.15604,34.4428366 Z M158.51957,41.1820796 L161.073802,41.1820796 C163.176131,41.1820796 164.846206,40.5926415 166.084026,39.4137651 C167.321846,38.2348888 167.95058,36.6041099 167.95058,34.5214284 C167.95058,31.0240953 166.005434,29.2754287 162.134791,29.2754287 L158.51957,29.2754287 L158.51957,41.1820796 Z" id="Shape"></path>
                <path d="M240.097812,69.8091264 L237.543579,60.0833967 L220.705296,60.0833967 L218.072472,69.8091264 L202.688136,69.8091264 L219.605011,17.7420887 L238.290201,17.7420887 L255.423204,69.8091264 L240.097812,69.8091264 Z M234.635685,48.6090005 L232.39582,40.101443 C231.884973,38.2152409 231.236591,35.7592485 230.489969,32.7531139 C229.743348,29.7469793 229.252149,27.6053539 229.016374,26.288942 C228.800247,27.4874663 228.38764,29.4719081 227.758906,32.2422675 C227.130172,35.0126269 225.735168,40.4551059 223.593543,48.5893525 L234.635685,48.5893525 L234.635685,48.6090005 Z" id="Shape"></path>
                <path d="M332.1877,69.8091264 L313.816878,69.8091264 L294.876265,33.2836082 L294.561898,33.2836082 C295.0138,39.0208064 295.229928,43.4219446 295.229928,46.4477272 L295.229928,69.8287743 L282.81243,69.8287743 L282.81243,17.958216 L301.124309,17.958216 L319.98633,53.9925357 L320.202458,53.9925357 C319.868443,48.766184 319.711259,44.5615251 319.711259,41.3982069 L319.711259,17.958216 L332.1877,17.958216 L332.1877,69.8091264 L332.1877,69.8091264 Z" id="Path"></path>
                <path d="M409.20762,42.7932106 C409.20762,51.4383036 406.83022,58.1186028 402.055771,62.7948122 C397.281322,67.4710217 390.601022,69.8091264 381.955929,69.8091264 L365.17659,69.8091264 L365.17659,17.958216 L383.115158,17.958216 C391.445884,17.958216 397.87076,20.0801934 402.389786,24.3437961 C406.928459,28.6073988 409.20762,34.7572036 409.20762,42.7932106 Z M394.668146,43.2844091 C394.668146,38.5296079 393.725045,35.0126269 391.838842,32.713818 C389.95264,30.4150092 387.103689,29.2754287 383.272341,29.2754287 L379.18557,29.2754287 L379.18557,58.3150822 L382.309592,58.3150822 C386.573195,58.3150822 389.677569,57.0772621 391.681659,54.6016218 C393.685749,52.1259815 394.668146,48.3732252 394.668146,43.2844091 Z" id="Shape"></path>
                <path d="M601.403757,55.0535244 C601.403757,58.3543781 600.480304,61.281921 598.633398,63.836153 C596.786492,66.390385 594.114372,68.3748268 590.617039,69.8091264 C587.119706,71.223778 583.032934,71.9311038 578.337077,71.9311038 C574.427137,71.9311038 571.126284,71.6756806 568.473812,71.1844821 C565.82134,70.6932836 563.050981,69.8287743 560.182382,68.5909542 L560.182382,55.800146 C563.208164,57.2147976 566.371482,58.2954343 569.63304,59.0813518 C572.914246,59.8672694 575.920381,60.2602281 578.651444,60.2602281 C581.009197,60.2602281 582.738215,59.8869173 583.8385,59.1599436 C584.938784,58.4133219 585.488927,57.4702208 585.488927,56.3109925 C585.488927,55.5840187 585.272799,54.9552847 584.820897,54.4051424 C584.368994,53.8550001 583.661668,53.3048578 582.679272,52.7547155 C581.696875,52.2045733 579.083699,51.0649928 574.859392,49.3359742 C571.028044,47.7641391 568.139797,46.2315999 566.233947,44.7580045 C564.308449,43.2844091 562.893797,41.5750384 561.970344,39.6691883 C561.046891,37.7633383 560.57534,35.4841774 560.57534,32.8710015 C560.57534,27.9786648 562.540134,24.1669647 566.48937,21.4162532 C570.438606,18.6851898 575.861437,17.309834 582.757863,17.309834 C588.848724,17.309834 595.057473,18.5869501 601.384109,21.1215342 L596.51142,32.2029716 C591.009998,29.9238107 586.255196,28.7842303 582.266665,28.7842303 C580.203631,28.7842303 578.69074,29.1182452 577.767287,29.7666272 C576.824186,30.4150092 576.352635,31.2402226 576.352635,32.2029716 C576.352635,33.2443124 576.942073,34.1874134 578.140598,34.9929789 C579.339122,35.8181923 582.581032,37.3114357 587.866327,39.4923569 C592.935496,41.5553905 596.452477,43.7559596 598.436918,46.1333602 C600.401712,48.4911128 601.403757,51.4579516 601.403757,55.0535244 Z" id="Path"></path>
                <polygon id="Path" points="657.04672 71.1844821 641.151537 71.1844821 641.151537 29.7862751 626.788894 29.7862751 626.788894 18.0368078 671.370067 18.0368078 671.370067 29.7862751 657.04672 29.7862751"></polygon>
                <path d="M746.366249,44.5418771 C746.366249,53.4816893 743.929905,60.2798761 739.076864,64.9364376 C734.223823,69.592999 727.111269,71.9114558 717.739202,71.9114558 C708.504671,71.9114558 701.431413,69.5733511 696.519429,64.8971417 C691.587796,60.2209323 689.131804,53.4030975 689.131804,44.4632854 C689.131804,35.621713 691.587796,28.862822 696.480133,24.1866126 C701.37247,19.5300511 708.485023,17.1919464 717.837442,17.1919464 C727.209509,17.1919464 734.302415,19.5104032 739.135808,24.1276688 C743.949553,28.7645823 746.366249,35.5627691 746.366249,44.5418771 Z M705.891495,44.5418771 C705.891495,54.8177491 709.840731,59.9655091 717.75885,59.9655091 C721.786678,59.9655091 724.773165,58.708041 726.718311,56.2127528 C728.663456,53.7174645 729.626205,49.8271727 729.626205,44.5418771 C729.626205,39.2369337 728.643809,35.3073459 726.659367,32.7727618 C724.694573,30.2381777 721.747382,28.9807097 717.817794,28.9807097 C709.880027,28.9807097 705.891495,34.1677655 705.891495,44.5418771 Z" id="Shape"></path>
                <path d="M786.133677,51.8509104 L786.133677,71.1844821 L770.238495,71.1844821 L770.238495,18.0368078 L789.513123,18.0368078 C805.506545,18.0368078 813.503256,23.2631595 813.503256,33.7355108 C813.503256,39.8853157 810.182754,44.6597648 803.522103,48.0195623 L820.674754,71.1844821 L802.637946,71.1844821 L790.161505,51.8509104 L786.133677,51.8509104 Z M786.133677,41.044544 L789.120164,41.044544 C794.680531,41.044544 797.45089,38.824327 797.45089,34.3838928 C797.45089,30.7293762 794.719827,28.9021179 789.277347,28.9021179 L786.133677,28.9021179 L786.133677,41.044544 L786.133677,41.044544 Z" id="Shape"></path>
                <polygon id="Path" points="860.540421 37.7436903 870.678758 18.0368078 887.91 18.0368078 868.55678 50.4362588 868.55678 71.20413 852.54371 71.20413 852.54371 50.8881614 833.190491 18.0564557 850.500325 18.0564557"></polygon>
                <g transform="translate(431.426340, 0.000000)">
                    <path d="M60.4008632,32.4976907 C60.7545261,32.9299453 60.7152302,33.2836082 60.2829755,33.5193835 C59.9293126,33.9123423 59.5560018,34.2660052 59.2023389,34.5410763 C54.9190883,36.9970687 49.8892159,38.2152409 44.1520178,38.2152409 C42.5801827,38.2152409 40.9101079,38.1366491 39.1024976,37.9794656 C38.4934115,38.9422146 37.7860857,40.0621471 36.9412243,41.3589111 C34.0922732,46.0154725 31.2433221,50.672034 28.3943709,55.3285955 C24.7791502,61.1443854 21.3800568,65.4669319 18.1577949,68.2765872 C17.470117,68.8856733 16.9003268,68.9053212 16.4091283,68.335531 C16.2519448,68.1783475 16.173353,67.9818681 16.173353,67.7264449 C16.173353,67.2352464 16.5270159,66.7047521 17.2539897,66.095666 C20.2601243,63.4431942 23.5413301,59.4939585 27.0583111,54.2479589 C29.8679663,49.7878768 32.6776216,45.3277947 35.4872768,40.8284167 C36.1749547,39.7477801 36.7643928,38.7653832 37.2948872,37.8812259 C36.5286176,37.7240424 35.7427,37.6258027 34.9567825,37.5865068 C33.3849474,37.3900274 29.6321911,36.6630537 23.6985136,35.4252336 C19.081248,34.4231887 15.4463793,33.9123423 12.8135555,33.9123423 C8.88396776,33.9123423 5.62240993,34.8554433 3.06817789,36.7416455 C3.10747377,36.7809413 4.07022277,36.9381248 5.95642489,37.213196 C6.03501664,37.2524919 6.15290428,37.3507316 6.31008779,37.5079151 C6.31008779,37.7043945 6.23149603,37.8222821 6.07431252,37.861578 C4.99367589,38.2545367 3.73620781,38.4706641 2.28226034,38.4706641 C0.789016997,38.4706641 0.042395325,38.175945 0.0030994475,37.5668589 C-0.03619643,37.1346042 0.297818529,36.6041099 1.02479226,35.9950238 C4.40423773,33.676567 8.49100899,32.4976907 13.304754,32.4976907 C15.8393381,32.4976907 19.0223042,32.8317056 22.8733002,33.5193835 C26.0366183,34.1284696 29.2195844,34.7179078 32.3829025,35.3269939 C33.6993144,35.4448815 35.6837562,35.6610088 38.3362279,35.9950238 C40.7529244,31.7117731 43.1892688,28.4698632 45.684557,26.30859 L45.4487818,26.30859 C46.0971638,25.7387998 46.6080102,25.6798559 47.0206169,26.1317585 C47.4528715,26.6033091 47.3742798,27.1338034 46.7848416,27.7035936 C44.9379354,29.4326122 42.79631,32.2029716 40.3403177,36.0146717 C42.3837033,36.1325594 44.7611039,36.1129114 47.4332236,35.9557279 C49.7123845,35.8378403 53.6616202,34.6000201 59.2809307,32.2226195 C59.811425,31.9475484 60.1847358,32.0457881 60.4008632,32.4976907 Z" id="Path"></path>
                    <path d="M86.6308614,1.13958045 C86.5129738,1.74866655 86.2182547,2.39704853 85.7270562,3.12402226 C83.8015582,6.05156513 81.2276782,9.56854617 78.0250642,13.6553174 C74.9403378,17.5849052 71.8752594,21.494845 68.8101809,25.3851369 C62.7193199,33.3229041 58.9076198,38.3527764 57.3750806,40.4354579 C53.6812681,45.3670906 50.1446391,50.3183711 46.7848416,55.3089476 C50.51795,52.0670377 54.1724666,49.4931577 57.7287435,47.6069556 C58.848676,46.9978695 59.7524812,46.9192777 60.440159,47.3711803 C60.6759343,47.489068 61.0099493,48.0195623 61.402908,48.9430154 C61.4422039,49.1787907 61.4618519,49.4538618 61.4618519,49.728933 C61.4618519,50.6130902 61.0688931,52.3028129 60.2829755,54.7784532 C59.497058,57.2737415 59.1040992,59.0420559 59.1040992,60.1423405 C59.1040992,61.7927674 59.7524812,62.9126999 61.0295972,63.521786 C61.8351627,63.8754489 62.7782638,63.836153 63.8589004,63.4038983 C65.902286,62.559037 68.2207428,61.0657936 70.7749748,58.8848724 C70.9321583,58.7669848 71.1089898,58.7669848 71.3251171,58.8848724 C71.5608924,59.0027601 71.5805403,59.1402956 71.3840609,59.2974791 C68.3386304,62.0678385 66.1184133,63.8950968 64.7627056,64.7792541 C63.0729828,65.8598907 61.736923,66.3707371 60.7348781,66.2921453 C58.0431105,66.095666 56.5498672,64.3077035 56.2158522,60.9282581 C56.1372605,60.0048049 56.5498672,58.1382508 57.4536723,55.3285955 C58.3574775,52.5189403 58.8093801,50.7702737 58.8093801,50.1022438 C58.8093801,49.5913974 58.6325487,49.2966783 58.2592378,49.2573824 C51.4414031,53.1869702 46.2150514,57.3130373 42.6194786,61.6552318 C41.6567296,63.0895313 40.9297559,64.2094638 40.4582053,64.9560855 L40.0455986,65.427636 C39.7312316,65.7812989 39.3775687,65.8205948 39.0239058,65.5455237 C38.7095388,65.3097484 38.630947,65.0346773 38.7881305,64.7006623 L39.2007373,63.6200257 C39.9670069,62.4607973 40.8118682,61.3605127 41.7353214,60.319172 C42.6194786,58.8259286 44.093074,56.4288801 46.1954034,53.0887305 C48.5531561,49.5128056 51.8540098,44.8758921 56.0586687,39.1779899 C60.7152302,32.8710015 63.7213648,28.7252865 65.0770726,26.7211967 C70.2837764,19.0977965 74.7242105,12.7908081 78.3787271,7.76093581 C80.5007045,4.83339293 82.7995133,2.29880883 85.2358577,0.176831449 C85.3537454,0.0589438162 85.5305768,0 85.786,0 C86.434382,0 86.7094531,0.373310836 86.6308614,1.13958045 Z" id="Path"></path>
                    <path d="M99.8146283,58.6687451 C98.0856097,60.4370596 95.8260967,62.0285426 93.0164415,63.4235463 C91.9751007,63.9540406 90.2657301,64.484535 87.9079774,65.0543252 C85.2948016,65.6634113 83.1531762,65.9581304 81.4634535,65.9581304 C76.1978059,65.9581304 73.6828698,64.2684076 73.8793491,60.9086101 C73.918645,60.1030446 74.2133641,59.2778312 74.7831543,58.4329698 C76.5121729,55.7804981 79.4397158,53.3638016 83.6050788,51.1435846 C87.7507939,48.9430154 91.3267188,47.9999144 94.2935575,48.3142814 C94.450741,48.432169 94.6472204,48.5893525 94.9026436,48.8054799 C95.0205312,48.9233675 95.0401792,49.080551 94.9615874,49.2966783 L94.784756,49.8468206 C94.6668683,50.0040041 94.470389,50.2790753 94.1756699,50.6327382 C94.0184864,50.7506258 93.5272879,51.1632325 92.7217224,51.8312624 C88.3402321,53.9728877 83.3103597,56.134161 77.6124575,58.3543781 C77.0426673,58.8455766 76.6104126,59.67079 76.2960456,60.8300184 C76.5711168,62.7555164 78.4769668,63.8558009 82.0135958,64.0915762 C83.0549365,64.170168 84.7250113,64.0129844 87.0434681,63.6396736 C89.3422769,63.2467148 91.0123517,62.8537561 92.0143966,62.4607973 C94.7454601,61.3212168 97.0639169,59.9065652 98.9894149,58.1971946 C99.1858943,58.0007152 99.4216695,58.0007152 99.7163886,58.1971946 C99.9718118,58.3150822 100.011108,58.4722657 99.8146283,58.6687451 Z M92.8199621,50.0040041 C92.8199621,49.8075247 92.2894678,49.7682289 91.248127,49.8861165 C86.2379026,51.1239366 82.1118355,53.3638016 78.9092215,56.5664157 C83.6836706,54.7195094 87.8883295,52.8922511 91.5428461,51.0846407 C92.4073554,50.4952026 92.8199621,50.1218917 92.8199621,50.0040041 Z" id="Shape"></path>
                </g>
                <polygon id="Path" points="118.594958 71.1844821 100.204488 71.1844821 88.7300914 54.5623259 77.3735828 71.1844821 59.3760709 71.1844821 78.8864741 43.9917349 60.5352993 18.0368078 78.1595003 18.0368078 88.7890352 34.4624846 99.0059634 18.0368078 117.160659 18.0368078 98.5344128 45.1313153"></polygon>
                <polygon id="Path" points="30.7686721 69.8091264 0 69.8091264 0 17.958216 30.78832 17.958216 30.78832 29.196837 14.0089803 29.196837 14.0089803 37.3507316 29.5504999 37.3507316 29.5504999 48.5893525 14.0089803 48.5893525 14.0089803 58.374026 30.78832 58.374026 30.78832 69.8091264"></polygon>
            </g>
        </g>
    </g>
</svg>