<?xml version="1.0" encoding="UTF-8"?>
<svg width="420px" height="20px" viewBox="0 0 420 20" version="1.1" xmlns="http://www.w3.org/2000/svg" xmlns:xlink="http://www.w3.org/1999/xlink">
    <title>Icons / FORM Credit / Long</title>
    <g id="ðŸ› ï¸-For-Devs---Templates---Parishes" stroke="none" stroke-width="1" fill="none" fill-rule="evenodd">
        <g id="Expand-the-Story" transform="translate(-819.000000, -6437.000000)" fill="#FFFFFF">
            <g id="Group-9" transform="translate(819.500000, 6437.500000)">
                <path d="M61.9506087,6.10034783 C61.9506087,6.08756522 61.9633913,6.062 61.9633913,6.04921739 C61.9633913,5.98530435 61.9122609,5.94695652 61.8227826,5.94695652 L60.8896522,5.94695652 C60.8257391,5.94695652 60.7746087,5.98530435 60.7618261,6.04921739 L59.6753043,11.942 L58.1541739,6.01086957 C58.1413913,5.94695652 58.1030435,5.9213913 58.0263478,5.9213913 L57.630087,5.9213913 C57.5533913,5.9213913 57.5150435,5.94695652 57.5022609,6.01086957 L56.0066957,11.942 L54.8946087,6.04921739 C54.8818261,5.98530435 54.8306957,5.94695652 54.7667826,5.94695652 L53.8336522,5.94695652 C53.7441739,5.94695652 53.6930435,5.98530435 53.6930435,6.04921739 C53.6930435,6.062 53.7058261,6.08756522 53.7058261,6.10034783 L55.3547826,13.8977391 C55.3675652,13.9616522 55.405913,14 55.4826087,14 L56.2112174,14 C56.2751304,14 56.3262609,13.9744348 56.3390435,13.9105217 L57.8473913,8.24782609 L59.3173913,13.9105217 C59.3301739,13.9744348 59.3813043,14 59.4452174,14 L60.1738261,14 C60.2377391,14 60.2888696,13.9616522 60.3016522,13.8977391 L61.9506087,6.10034783 Z M67.956,13.8721739 L67.956,13.1052174 C67.956,13.0157391 67.9048696,12.9773913 67.8281739,12.9773913 L64.6325217,12.9773913 C64.5430435,12.9773913 64.5046957,12.9390435 64.5046957,12.8495652 L64.5046957,10.5486957 C64.5046957,10.4592174 64.5430435,10.4208696 64.6325217,10.4208696 L67.2529565,10.4208696 C67.3424348,10.4208696 67.3807826,10.3825217 67.3807826,10.2930435 L67.3807826,9.52608696 C67.3807826,9.4366087 67.3424348,9.39826087 67.2529565,9.39826087 L64.6325217,9.39826087 C64.5430435,9.39826087 64.5046957,9.35991304 64.5046957,9.27043478 L64.5046957,7.0973913 C64.5046957,7.00791304 64.5430435,6.96956522 64.6325217,6.96956522 L67.8281739,6.96956522 C67.9176522,6.96956522 67.956,6.93121739 67.956,6.84173913 L67.956,6.07478261 C67.956,5.98530435 67.9048696,5.94695652 67.8281739,5.94695652 L63.482087,5.94695652 C63.3926087,5.94695652 63.3542609,5.98530435 63.3542609,6.07478261 L63.3542609,13.8721739 C63.3542609,13.9616522 63.3926087,14 63.482087,14 L67.8281739,14 C67.9176522,14 67.956,13.9616522 67.956,13.8721739 L67.956,13.8721739 Z M74.7794783,11.7246957 L74.7794783,11.5329565 C74.7794783,11.2261739 74.6516522,10.8682609 74.3832174,10.472 C74.165913,10.1396522 73.9102609,9.99904348 73.9102609,9.92234783 C73.9102609,9.83286957 74.165913,9.71782609 74.3832174,9.41104348 C74.6516522,9.04034783 74.7794783,8.68243478 74.7794783,8.37565217 L74.7794783,8.24782609 C74.7794783,6.84173913 73.8846957,5.94695652 72.4786087,5.94695652 L69.922087,5.94695652 C69.8326087,5.94695652 69.7942609,5.98530435 69.7942609,6.07478261 L69.7942609,13.8721739 C69.7942609,13.9616522 69.8326087,14 69.922087,14 L72.4786087,14 C73.8974783,14 74.7794783,13.1307826 74.7794783,11.7246957 L74.7794783,11.7246957 Z M73.6290435,8.24782609 C73.6290435,8.88695652 73.1177391,9.39826087 72.4786087,9.39826087 L71.0725217,9.39826087 C70.9830435,9.39826087 70.9446957,9.35991304 70.9446957,9.27043478 L70.9446957,7.0973913 C70.9446957,7.00791304 70.9830435,6.96956522 71.0725217,6.96956522 L72.4786087,6.96956522 C73.1177391,6.96956522 73.6290435,7.48086957 73.6290435,8.12 L73.6290435,8.24782609 Z M73.6290435,11.8269565 C73.6290435,12.4533043 73.1177391,12.9773913 72.4786087,12.9773913 L71.0725217,12.9773913 C70.9830435,12.9773913 70.9446957,12.9390435 70.9446957,12.8495652 L70.9446957,10.5486957 C70.9446957,10.4592174 70.9830435,10.4208696 71.0725217,10.4208696 L72.4786087,10.4208696 C73.1177391,10.4208696 73.6290435,10.9449565 73.6290435,11.5713043 L73.6290435,11.8269565 Z M78.5990435,6.84173913 L78.8035652,6.84173913 C79.3532174,6.84173913 79.5705217,7.16130435 79.8645217,7.55756522 C79.9028696,7.60869565 79.9156522,7.63426087 79.9667826,7.63426087 C79.9795652,7.63426087 80.0051304,7.63426087 80.0306957,7.62147826 L80.8487826,7.21243478 C80.899913,7.18686957 80.9254783,7.14852174 80.9254783,7.11017391 C80.9254783,6.62443478 80.0562609,5.81913043 78.8035652,5.81913043 L78.5990435,5.81913043 C77.2057391,5.81913043 76.2981739,6.68834783 76.2981739,7.99217391 C76.2981739,9.296 77.0395652,9.80730435 78.4073043,10.4464348 C79.4043478,10.9066087 79.954,11.2261739 79.954,11.9547826 C79.954,12.593913 79.429913,13.1052174 78.8035652,13.1052174 L78.2666957,13.1052174 C77.6786957,13.1052174 77.4997391,12.7728696 77.2057391,12.3766087 C77.1673913,12.3254783 77.1418261,12.2871304 77.0906957,12.2871304 C77.077913,12.2871304 77.0523478,12.299913 77.0267826,12.3126957 L76.2214783,12.7217391 C76.1703478,12.7473043 76.1447826,12.7728696 76.1447826,12.8112174 C76.1447826,13.0157391 76.3748696,13.3736522 76.8733913,13.7571304 C77.1546087,13.9744348 77.6531304,14.1278261 78.2666957,14.1278261 L78.8035652,14.1278261 C80.1968696,14.1278261 81.1044348,13.2458261 81.1044348,11.9547826 C81.1044348,10.702087 80.4653043,10.0373913 79.1103478,9.41104348 C78.0749565,8.92530435 77.4486087,8.68243478 77.4486087,7.99217391 C77.4486087,7.34026087 77.9726957,6.84173913 78.5990435,6.84173913 L78.5990435,6.84173913 Z M83.8246957,13.8721739 L83.8246957,6.07478261 C83.8246957,5.98530435 83.7735652,5.94695652 83.6968696,5.94695652 L82.802087,5.94695652 C82.7126087,5.94695652 82.6742609,5.98530435 82.6742609,6.07478261 L82.6742609,13.8721739 C82.6742609,13.9616522 82.7126087,14 82.802087,14 L83.6968696,14 C83.7863478,14 83.8246957,13.9616522 83.8246957,13.8721739 L83.8246957,13.8721739 Z M89.9451304,6.84173913 L89.9451304,6.07478261 C89.9451304,5.98530435 89.9067826,5.94695652 89.8173043,5.94695652 L85.4712174,5.94695652 C85.3817391,5.94695652 85.3433913,5.98530435 85.3433913,6.07478261 L85.3433913,6.84173913 C85.3433913,6.93121739 85.3817391,6.96956522 85.4712174,6.96956522 L86.9412174,6.96956522 C87.0306957,6.96956522 87.0690435,7.00791304 87.0690435,7.0973913 L87.0690435,13.8721739 C87.0690435,13.9616522 87.1073913,14 87.1968696,14 L88.0916522,14 C88.1811304,14 88.2194783,13.9616522 88.2194783,13.8721739 L88.2194783,7.0973913 C88.2194783,7.00791304 88.2578261,6.96956522 88.3473043,6.96956522 L89.8173043,6.96956522 C89.9067826,6.96956522 89.9451304,6.93121739 89.9451304,6.84173913 L89.9451304,6.84173913 Z M96.0655652,13.8721739 L96.0655652,13.1052174 C96.0655652,13.0157391 96.0144348,12.9773913 95.9377391,12.9773913 L92.742087,12.9773913 C92.6526087,12.9773913 92.6142609,12.9390435 92.6142609,12.8495652 L92.6142609,10.5486957 C92.6142609,10.4592174 92.6526087,10.4208696 92.742087,10.4208696 L95.3625217,10.4208696 C95.452,10.4208696 95.4903478,10.3825217 95.4903478,10.2930435 L95.4903478,9.52608696 C95.4903478,9.4366087 95.452,9.39826087 95.3625217,9.39826087 L92.742087,9.39826087 C92.6526087,9.39826087 92.6142609,9.35991304 92.6142609,9.27043478 L92.6142609,7.0973913 C92.6142609,7.00791304 92.6526087,6.96956522 92.742087,6.96956522 L95.9377391,6.96956522 C96.0272174,6.96956522 96.0655652,6.93121739 96.0655652,6.84173913 L96.0655652,6.07478261 C96.0655652,5.98530435 96.0144348,5.94695652 95.9377391,5.94695652 L91.5916522,5.94695652 C91.5021739,5.94695652 91.4638261,5.98530435 91.4638261,6.07478261 L91.4638261,13.8721739 C91.4638261,13.9616522 91.5021739,14 91.5916522,14 L95.9377391,14 C96.0272174,14 96.0655652,13.9616522 96.0655652,13.8721739 L96.0655652,13.8721739 Z M105.481478,11.6991304 L105.481478,8.24782609 C105.481478,6.84173913 104.586696,5.94695652 103.180609,5.94695652 L100.624087,5.94695652 C100.534609,5.94695652 100.496261,5.98530435 100.496261,6.07478261 L100.496261,13.8721739 C100.496261,13.9616522 100.534609,14 100.624087,14 L103.180609,14 C104.599478,14 105.481478,13.118 105.481478,11.6991304 L105.481478,11.6991304 Z M104.331043,11.8269565 C104.331043,12.4533043 103.819739,12.9773913 103.180609,12.9773913 L101.774522,12.9773913 C101.685043,12.9773913 101.646696,12.9390435 101.646696,12.8495652 L101.646696,7.0973913 C101.646696,7.00791304 101.685043,6.96956522 101.774522,6.96956522 L103.180609,6.96956522 C103.819739,6.96956522 104.331043,7.48086957 104.331043,8.12 L104.331043,11.8269565 Z M112.113217,13.8721739 L112.113217,13.1052174 C112.113217,13.0157391 112.062087,12.9773913 111.985391,12.9773913 L108.789739,12.9773913 C108.700261,12.9773913 108.661913,12.9390435 108.661913,12.8495652 L108.661913,10.5486957 C108.661913,10.4592174 108.700261,10.4208696 108.789739,10.4208696 L111.410174,10.4208696 C111.499652,10.4208696 111.538,10.3825217 111.538,10.2930435 L111.538,9.52608696 C111.538,9.4366087 111.499652,9.39826087 111.410174,9.39826087 L108.789739,9.39826087 C108.700261,9.39826087 108.661913,9.35991304 108.661913,9.27043478 L108.661913,7.0973913 C108.661913,7.00791304 108.700261,6.96956522 108.789739,6.96956522 L111.985391,6.96956522 C112.07487,6.96956522 112.113217,6.93121739 112.113217,6.84173913 L112.113217,6.07478261 C112.113217,5.98530435 112.062087,5.94695652 111.985391,5.94695652 L107.639304,5.94695652 C107.549826,5.94695652 107.511478,5.98530435 107.511478,6.07478261 L107.511478,13.8721739 C107.511478,13.9616522 107.549826,14 107.639304,14 L111.985391,14 C112.07487,14 112.113217,13.9616522 112.113217,13.8721739 L112.113217,13.8721739 Z M115.804957,6.84173913 L116.009478,6.84173913 C116.55913,6.84173913 116.776435,7.16130435 117.070435,7.55756522 C117.108783,7.60869565 117.121565,7.63426087 117.172696,7.63426087 C117.185478,7.63426087 117.211043,7.63426087 117.236609,7.62147826 L118.054696,7.21243478 C118.105826,7.18686957 118.131391,7.14852174 118.131391,7.11017391 C118.131391,6.62443478 117.262174,5.81913043 116.009478,5.81913043 L115.804957,5.81913043 C114.411652,5.81913043 113.504087,6.68834783 113.504087,7.99217391 C113.504087,9.296 114.245478,9.80730435 115.613217,10.4464348 C116.610261,10.9066087 117.159913,11.2261739 117.159913,11.9547826 C117.159913,12.593913 116.635826,13.1052174 116.009478,13.1052174 L115.472609,13.1052174 C114.884609,13.1052174 114.705652,12.7728696 114.411652,12.3766087 C114.373304,12.3254783 114.347739,12.2871304 114.296609,12.2871304 C114.283826,12.2871304 114.258261,12.299913 114.232696,12.3126957 L113.427391,12.7217391 C113.376261,12.7473043 113.350696,12.7728696 113.350696,12.8112174 C113.350696,13.0157391 113.580783,13.3736522 114.079304,13.7571304 C114.360522,13.9744348 114.859043,14.1278261 115.472609,14.1278261 L116.009478,14.1278261 C117.402783,14.1278261 118.310348,13.2458261 118.310348,11.9547826 C118.310348,10.702087 117.671217,10.0373913 116.316261,9.41104348 C115.28087,8.92530435 114.654522,8.68243478 114.654522,7.99217391 C114.654522,7.34026087 115.178609,6.84173913 115.804957,6.84173913 L115.804957,6.84173913 Z M121.030609,13.8721739 L121.030609,6.07478261 C121.030609,5.98530435 120.979478,5.94695652 120.902783,5.94695652 L120.008,5.94695652 C119.918522,5.94695652 119.880174,5.98530435 119.880174,6.07478261 L119.880174,13.8721739 C119.880174,13.9616522 119.918522,14 120.008,14 L120.902783,14 C120.992261,14 121.030609,13.9616522 121.030609,13.8721739 L121.030609,13.8721739 Z M125.975043,5.81913043 L125.361478,5.81913043 C123.968174,5.81913043 123.060609,6.68834783 123.060609,7.99217391 L123.060609,11.9547826 C123.060609,13.2586087 123.968174,14.1278261 125.361478,14.1278261 L125.744957,14.1278261 C127.138261,14.1278261 128.045826,13.2586087 128.045826,11.9547826 L128.045826,10.1013043 C128.045826,10.0118261 128.007478,9.97347826 127.918,9.97347826 L125.489304,9.97347826 C125.399826,9.97347826 125.361478,10.0118261 125.361478,10.1013043 L125.361478,10.8682609 C125.361478,10.9577391 125.399826,10.996087 125.489304,10.996087 L126.767565,10.996087 C126.844261,10.996087 126.895391,11.0472174 126.895391,11.123913 L126.895391,11.9547826 C126.895391,12.593913 126.384087,13.1052174 125.744957,13.1052174 L125.361478,13.1052174 C124.722348,13.1052174 124.211043,12.593913 124.211043,11.9547826 L124.211043,7.99217391 C124.211043,7.35304348 124.722348,6.84173913 125.361478,6.84173913 L125.975043,6.84173913 C126.524696,6.84173913 126.742,7.16130435 127.036,7.55756522 C127.074348,7.60869565 127.08713,7.63426087 127.138261,7.63426087 C127.151043,7.63426087 127.176609,7.63426087 127.202174,7.62147826 L128.020261,7.21243478 C128.071391,7.18686957 128.096957,7.14852174 128.096957,7.11017391 C128.096957,6.61165217 127.227739,5.81913043 125.975043,5.81913043 L125.975043,5.81913043 Z M135.252783,13.8721739 L135.252783,6.07478261 C135.252783,5.98530435 135.214435,5.94695652 135.124957,5.94695652 L134.230174,5.94695652 C134.140696,5.94695652 134.102348,5.98530435 134.102348,6.07478261 L134.166261,11.7374783 L131.136783,6.01086957 L131.021739,5.94695652 L130.203652,5.94695652 C130.114174,5.94695652 130.075826,5.98530435 130.075826,6.07478261 L130.075826,13.8721739 C130.075826,13.9616522 130.114174,14 130.203652,14 L131.098435,14 C131.187913,14 131.226261,13.9616522 131.226261,13.8721739 L131.149565,8.19669565 L134.191826,13.936087 L134.30687,14 L135.124957,14 C135.214435,14 135.252783,13.9616522 135.252783,13.8721739 L135.252783,13.8721739 Z M145.052174,11.1878261 L145.052174,10.6765217 C145.052174,10.5870435 145.013826,10.5486957 144.924348,10.5486957 L142.87913,10.5486957 C142.789652,10.5486957 142.751304,10.5103478 142.751304,10.4208696 L142.751304,8.37565217 C142.751304,8.28617391 142.712957,8.24782609 142.623478,8.24782609 L142.112174,8.24782609 C142.022696,8.24782609 141.984348,8.28617391 141.984348,8.37565217 L141.984348,10.4208696 C141.984348,10.5103478 141.946,10.5486957 141.856522,10.5486957 L139.811304,10.5486957 C139.721826,10.5486957 139.683478,10.5870435 139.683478,10.6765217 L139.683478,11.1878261 C139.683478,11.2773043 139.721826,11.3156522 139.811304,11.3156522 L141.856522,11.3156522 C141.933217,11.3156522 141.984348,11.3667826 141.984348,11.4434783 L141.984348,13.4886957 C141.984348,13.5781739 142.022696,13.6165217 142.112174,13.6165217 L142.623478,13.6165217 C142.712957,13.6165217 142.751304,13.5781739 142.751304,13.4886957 L142.751304,11.4434783 C142.751304,11.354 142.789652,11.3156522 142.87913,11.3156522 L144.924348,11.3156522 C145.013826,11.3156522 145.052174,11.2773043 145.052174,11.1878261 L145.052174,11.1878261 Z M154.468087,11.6991304 L154.468087,8.24782609 C154.468087,6.84173913 153.573304,5.94695652 152.167217,5.94695652 L149.610696,5.94695652 C149.521217,5.94695652 149.48287,5.98530435 149.48287,6.07478261 L149.48287,13.8721739 C149.48287,13.9616522 149.521217,14 149.610696,14 L152.167217,14 C153.586087,14 154.468087,13.118 154.468087,11.6991304 L154.468087,11.6991304 Z M153.317652,11.8269565 C153.317652,12.4533043 152.806348,12.9773913 152.167217,12.9773913 L150.76113,12.9773913 C150.671652,12.9773913 150.633304,12.9390435 150.633304,12.8495652 L150.633304,7.0973913 C150.633304,7.00791304 150.671652,6.96956522 150.76113,6.96956522 L152.167217,6.96956522 C152.806348,6.96956522 153.317652,7.48086957 153.317652,8.12 L153.317652,11.8269565 Z M161.099826,13.8721739 L161.099826,13.1052174 C161.099826,13.0157391 161.048696,12.9773913 160.972,12.9773913 L157.776348,12.9773913 C157.68687,12.9773913 157.648522,12.9390435 157.648522,12.8495652 L157.648522,10.5486957 C157.648522,10.4592174 157.68687,10.4208696 157.776348,10.4208696 L160.396783,10.4208696 C160.486261,10.4208696 160.524609,10.3825217 160.524609,10.2930435 L160.524609,9.52608696 C160.524609,9.4366087 160.486261,9.39826087 160.396783,9.39826087 L157.776348,9.39826087 C157.68687,9.39826087 157.648522,9.35991304 157.648522,9.27043478 L157.648522,7.0973913 C157.648522,7.00791304 157.68687,6.96956522 157.776348,6.96956522 L160.972,6.96956522 C161.061478,6.96956522 161.099826,6.93121739 161.099826,6.84173913 L161.099826,6.07478261 C161.099826,5.98530435 161.048696,5.94695652 160.972,5.94695652 L156.625913,5.94695652 C156.536435,5.94695652 156.498087,5.98530435 156.498087,6.07478261 L156.498087,13.8721739 C156.498087,13.9616522 156.536435,14 156.625913,14 L160.972,14 C161.061478,14 161.099826,13.9616522 161.099826,13.8721739 L161.099826,13.8721739 Z M167.706,6.11313043 C167.706,6.10034783 167.718783,6.07478261 167.718783,6.062 C167.718783,5.98530435 167.667652,5.94695652 167.578174,5.94695652 L166.619478,5.94695652 C166.542783,5.94695652 166.504435,5.97252174 166.491652,6.03643478 L164.881043,11.8908696 L163.219304,6.03643478 C163.206522,5.97252174 163.168174,5.94695652 163.091478,5.94695652 L162.132783,5.94695652 C162.043304,5.94695652 161.992174,5.98530435 161.992174,6.062 C161.992174,6.07478261 162.004957,6.08756522 162.004957,6.11313043 L164.382522,13.9105217 C164.408087,13.9744348 164.446435,14 164.510348,14 L165.200609,14 C165.264522,14 165.30287,13.9744348 165.328435,13.9105217 L167.706,6.11313043 Z M173.596348,13.8721739 L173.596348,13.1052174 C173.596348,13.0157391 173.545217,12.9773913 173.468522,12.9773913 L170.27287,12.9773913 C170.183391,12.9773913 170.145043,12.9390435 170.145043,12.8495652 L170.145043,10.5486957 C170.145043,10.4592174 170.183391,10.4208696 170.27287,10.4208696 L172.893304,10.4208696 C172.982783,10.4208696 173.02113,10.3825217 173.02113,10.2930435 L173.02113,9.52608696 C173.02113,9.4366087 172.982783,9.39826087 172.893304,9.39826087 L170.27287,9.39826087 C170.183391,9.39826087 170.145043,9.35991304 170.145043,9.27043478 L170.145043,7.0973913 C170.145043,7.00791304 170.183391,6.96956522 170.27287,6.96956522 L173.468522,6.96956522 C173.558,6.96956522 173.596348,6.93121739 173.596348,6.84173913 L173.596348,6.07478261 C173.596348,5.98530435 173.545217,5.94695652 173.468522,5.94695652 L169.122435,5.94695652 C169.032957,5.94695652 168.994609,5.98530435 168.994609,6.07478261 L168.994609,13.8721739 C168.994609,13.9616522 169.032957,14 169.122435,14 L173.468522,14 C173.558,14 173.596348,13.9616522 173.596348,13.8721739 L173.596348,13.8721739 Z M180.036348,13.8721739 L180.036348,13.1052174 C180.036348,13.0157391 179.985217,12.9773913 179.908522,12.9773913 L176.71287,12.9773913 C176.623391,12.9773913 176.585043,12.9390435 176.585043,12.8495652 L176.585043,6.07478261 C176.585043,5.98530435 176.533913,5.94695652 176.457217,5.94695652 L175.562435,5.94695652 C175.472957,5.94695652 175.434609,5.98530435 175.434609,6.07478261 L175.434609,13.8721739 C175.434609,13.9616522 175.472957,14 175.562435,14 L179.908522,14 C179.998,14 180.036348,13.9616522 180.036348,13.8721739 L180.036348,13.8721739 Z M186.348522,11.9547826 L186.348522,7.99217391 C186.348522,6.68834783 185.440957,5.81913043 184.047652,5.81913043 L183.664174,5.81913043 C182.27087,5.81913043 181.363304,6.68834783 181.363304,7.99217391 L181.363304,11.9547826 C181.363304,13.2586087 182.27087,14.1278261 183.664174,14.1278261 L184.047652,14.1278261 C185.440957,14.1278261 186.348522,13.2586087 186.348522,11.9547826 L186.348522,11.9547826 Z M185.198087,11.9547826 C185.198087,12.593913 184.686783,13.1052174 184.047652,13.1052174 L183.664174,13.1052174 C183.025043,13.1052174 182.513739,12.593913 182.513739,11.9547826 L182.513739,7.99217391 C182.513739,7.35304348 183.025043,6.84173913 183.664174,6.84173913 L184.047652,6.84173913 C184.686783,6.84173913 185.198087,7.35304348 185.198087,7.99217391 L185.198087,11.9547826 Z M191.06287,5.94695652 L188.506348,5.94695652 C188.41687,5.94695652 188.378522,5.98530435 188.378522,6.07478261 L188.378522,13.8721739 C188.378522,13.9616522 188.41687,14 188.506348,14 L189.40113,14 C189.490609,14 189.528957,13.9616522 189.528957,13.8721739 L189.528957,10.5486957 C189.528957,10.4592174 189.567304,10.4208696 189.656783,10.4208696 L191.06287,10.4208696 C192.443391,10.4208696 193.363739,9.52608696 193.363739,8.24782609 C193.363739,6.84173913 192.468957,5.94695652 191.06287,5.94695652 L191.06287,5.94695652 Z M192.213304,8.24782609 C192.213304,8.88695652 191.702,9.39826087 191.06287,9.39826087 L189.656783,9.39826087 C189.567304,9.39826087 189.528957,9.35991304 189.528957,9.27043478 L189.528957,7.0973913 C189.528957,7.00791304 189.567304,6.96956522 189.656783,6.96956522 L191.06287,6.96956522 C191.702,6.96956522 192.213304,7.48086957 192.213304,8.12 L192.213304,8.24782609 Z M201.222609,13.8721739 L201.222609,6.07478261 C201.222609,5.98530435 201.184261,5.94695652 201.094783,5.94695652 L200.187217,5.93417391 L200.072174,6.01086957 L198.065304,11.0983478 L198.026957,11.0983478 L196.007304,6.02365217 C195.994522,5.97252174 195.943391,5.94695652 195.892261,5.94695652 L195.010261,5.94695652 C194.920783,5.94695652 194.882435,5.98530435 194.882435,6.07478261 L194.882435,13.8721739 C194.882435,13.9616522 194.920783,14 195.010261,14 L195.905043,14 C195.994522,14 196.03287,13.9616522 196.03287,13.8721739 L195.917826,8.18391304 L197.720174,12.7728696 C197.732957,12.7984348 197.771304,12.8367826 197.835217,12.8495652 L198.269826,12.8495652 C198.333739,12.8367826 198.372087,12.7984348 198.38487,12.7728696 L200.212783,8.19669565 L200.072174,13.8721739 C200.072174,13.9616522 200.110522,14 200.2,14 L201.094783,14 C201.184261,14 201.222609,13.9616522 201.222609,13.8721739 L201.222609,13.8721739 Z M208.046087,13.8721739 L208.046087,13.1052174 C208.046087,13.0157391 207.994957,12.9773913 207.918261,12.9773913 L204.722609,12.9773913 C204.63313,12.9773913 204.594783,12.9390435 204.594783,12.8495652 L204.594783,10.5486957 C204.594783,10.4592174 204.63313,10.4208696 204.722609,10.4208696 L207.343043,10.4208696 C207.432522,10.4208696 207.47087,10.3825217 207.47087,10.2930435 L207.47087,9.52608696 C207.47087,9.4366087 207.432522,9.39826087 207.343043,9.39826087 L204.722609,9.39826087 C204.63313,9.39826087 204.594783,9.35991304 204.594783,9.27043478 L204.594783,7.0973913 C204.594783,7.00791304 204.63313,6.96956522 204.722609,6.96956522 L207.918261,6.96956522 C208.007739,6.96956522 208.046087,6.93121739 208.046087,6.84173913 L208.046087,6.07478261 C208.046087,5.98530435 207.994957,5.94695652 207.918261,5.94695652 L203.572174,5.94695652 C203.482696,5.94695652 203.444348,5.98530435 203.444348,6.07478261 L203.444348,13.8721739 C203.444348,13.9616522 203.482696,14 203.572174,14 L207.918261,14 C208.007739,14 208.046087,13.9616522 208.046087,13.8721739 L208.046087,13.8721739 Z M215.061304,13.8721739 L215.061304,6.07478261 C215.061304,5.98530435 215.022957,5.94695652 214.933478,5.94695652 L214.038696,5.94695652 C213.949217,5.94695652 213.91087,5.98530435 213.91087,6.07478261 L213.974783,11.7374783 L210.945304,6.01086957 L210.830261,5.94695652 L210.012174,5.94695652 C209.922696,5.94695652 209.884348,5.98530435 209.884348,6.07478261 L209.884348,13.8721739 C209.884348,13.9616522 209.922696,14 210.012174,14 L210.906957,14 C210.996435,14 211.034783,13.9616522 211.034783,13.8721739 L210.958087,8.19669565 L214.000348,13.936087 L214.115391,14 L214.933478,14 C215.022957,14 215.061304,13.9616522 215.061304,13.8721739 L215.061304,13.8721739 Z M221.181739,6.84173913 L221.181739,6.07478261 C221.181739,5.98530435 221.143391,5.94695652 221.053913,5.94695652 L216.707826,5.94695652 C216.618348,5.94695652 216.58,5.98530435 216.58,6.07478261 L216.58,6.84173913 C216.58,6.93121739 216.618348,6.96956522 216.707826,6.96956522 L218.177826,6.96956522 C218.267304,6.96956522 218.305652,7.00791304 218.305652,7.0973913 L218.305652,13.8721739 C218.305652,13.9616522 218.344,14 218.433478,14 L219.328261,14 C219.417739,14 219.456087,13.9616522 219.456087,13.8721739 L219.456087,7.0973913 C219.456087,7.00791304 219.494435,6.96956522 219.583913,6.96956522 L221.053913,6.96956522 C221.143391,6.96956522 221.181739,6.93121739 221.181739,6.84173913 L221.181739,6.84173913 Z M229.894609,6.84173913 L229.894609,6.07478261 C229.894609,5.98530435 229.843478,5.94695652 229.766783,5.94695652 L225.420696,5.94695652 C225.331217,5.94695652 225.29287,5.98530435 225.29287,6.07478261 L225.29287,13.8721739 C225.29287,13.9616522 225.331217,14 225.420696,14 L226.315478,14 C226.404957,14 226.443304,13.9616522 226.443304,13.8721739 L226.443304,10.5486957 C226.443304,10.4592174 226.481652,10.4208696 226.57113,10.4208696 L229.191565,10.4208696 C229.281043,10.4208696 229.319391,10.3825217 229.319391,10.2930435 L229.319391,9.52608696 C229.319391,9.4366087 229.281043,9.39826087 229.191565,9.39826087 L226.57113,9.39826087 C226.481652,9.39826087 226.443304,9.35991304 226.443304,9.27043478 L226.443304,7.0973913 C226.443304,7.00791304 226.481652,6.96956522 226.57113,6.96956522 L229.766783,6.96956522 C229.856261,6.96956522 229.894609,6.93121739 229.894609,6.84173913 L229.894609,6.84173913 Z M236.206783,11.9547826 L236.206783,7.99217391 C236.206783,6.68834783 235.299217,5.81913043 233.905913,5.81913043 L233.522435,5.81913043 C232.12913,5.81913043 231.221565,6.68834783 231.221565,7.99217391 L231.221565,11.9547826 C231.221565,13.2586087 232.12913,14.1278261 233.522435,14.1278261 L233.905913,14.1278261 C235.299217,14.1278261 236.206783,13.2586087 236.206783,11.9547826 L236.206783,11.9547826 Z M235.056348,11.9547826 C235.056348,12.593913 234.545043,13.1052174 233.905913,13.1052174 L233.522435,13.1052174 C232.883304,13.1052174 232.372,12.593913 232.372,11.9547826 L232.372,7.99217391 C232.372,7.35304348 232.883304,6.84173913 233.522435,6.84173913 L233.905913,6.84173913 C234.545043,6.84173913 235.056348,7.35304348 235.056348,7.99217391 L235.056348,11.9547826 Z M243.285913,13.8338261 L242.046,10.2546957 C242.033217,10.241913 242.033217,10.2291304 242.033217,10.2163478 C242.033217,10.0885217 242.263304,10.0501739 242.493391,9.83286957 C242.97913,9.37269565 243.222,8.82304348 243.222,8.37565217 L243.222,8.24782609 C243.222,6.84173913 242.327217,5.94695652 240.92113,5.94695652 L238.364609,5.94695652 C238.27513,5.94695652 238.236783,5.98530435 238.236783,6.07478261 L238.236783,13.8721739 C238.236783,13.9616522 238.27513,14 238.364609,14 L239.259391,14 C239.34887,14 239.387217,13.9616522 239.387217,13.8721739 L239.387217,10.5486957 C239.387217,10.4592174 239.425565,10.4208696 239.515043,10.4208696 L240.780522,10.4208696 L240.882783,10.4975652 L242.071565,13.9105217 L242.186609,14 L243.17087,14 C243.247565,14 243.298696,13.9616522 243.298696,13.8977391 C243.298696,13.8721739 243.298696,13.8593913 243.285913,13.8338261 L243.285913,13.8338261 Z M242.071565,8.24782609 C242.071565,8.88695652 241.560261,9.39826087 240.92113,9.39826087 L239.515043,9.39826087 C239.425565,9.39826087 239.387217,9.35991304 239.387217,9.27043478 L239.387217,7.0973913 C239.387217,7.00791304 239.425565,6.96956522 239.515043,6.96956522 L240.92113,6.96956522 C241.560261,6.96956522 242.071565,7.48086957 242.071565,8.12 L242.071565,8.24782609 Z M252.420609,13.8338261 L250.043043,6.03643478 C250.017478,5.97252174 249.97913,5.94695652 249.915217,5.94695652 L249.224957,5.94695652 C249.148261,5.94695652 249.109913,5.97252174 249.09713,6.03643478 L246.719565,13.8338261 C246.719565,13.8593913 246.706783,13.8721739 246.706783,13.8849565 C246.706783,13.9616522 246.757913,14 246.847391,14 L247.806087,14 C247.87,14 247.92113,13.9744348 247.933913,13.9105217 L248.40687,12.2232174 C248.419652,12.1593043 248.458,12.1465217 248.534696,12.1465217 L250.605478,12.1465217 C250.682174,12.1465217 250.720522,12.1593043 250.733304,12.2232174 L251.206261,13.9105217 C251.219043,13.9744348 251.270174,14 251.334087,14 L252.292783,14 C252.382261,14 252.433391,13.9616522 252.433391,13.8849565 C252.433391,13.8721739 252.420609,13.8593913 252.420609,13.8338261 L252.420609,13.8338261 Z M250.362609,10.9577391 C250.362609,10.9705217 250.375391,10.996087 250.375391,11.0088696 C250.375391,11.0855652 250.324261,11.123913 250.234783,11.123913 L248.892609,11.123913 C248.80313,11.123913 248.752,11.0855652 248.752,11.0088696 C248.752,10.996087 248.764783,10.9833043 248.764783,10.9577391 L249.39113,8.5673913 L249.544522,7.99217391 L249.595652,7.99217391 C249.659565,8.23504348 249.710696,8.42678261 249.749043,8.5546087 L250.362609,10.9577391 Z M258.758348,13.8338261 L257.518435,10.2546957 C257.505652,10.241913 257.505652,10.2291304 257.505652,10.2163478 C257.505652,10.0885217 257.735739,10.0501739 257.965826,9.83286957 C258.451565,9.37269565 258.694435,8.82304348 258.694435,8.37565217 L258.694435,8.24782609 C258.694435,6.84173913 257.799652,5.94695652 256.393565,5.94695652 L253.837043,5.94695652 C253.747565,5.94695652 253.709217,5.98530435 253.709217,6.07478261 L253.709217,13.8721739 C253.709217,13.9616522 253.747565,14 253.837043,14 L254.731826,14 C254.821304,14 254.859652,13.9616522 254.859652,13.8721739 L254.859652,10.5486957 C254.859652,10.4592174 254.898,10.4208696 254.987478,10.4208696 L256.252957,10.4208696 L256.355217,10.4975652 L257.544,13.9105217 L257.659043,14 L258.643304,14 C258.72,14 258.77113,13.9616522 258.77113,13.8977391 C258.77113,13.8721739 258.77113,13.8593913 258.758348,13.8338261 L258.758348,13.8338261 Z M257.544,8.24782609 C257.544,8.88695652 257.032696,9.39826087 256.393565,9.39826087 L254.987478,9.39826087 C254.898,9.39826087 254.859652,9.35991304 254.859652,9.27043478 L254.859652,7.0973913 C254.859652,7.00791304 254.898,6.96956522 254.987478,6.96956522 L256.393565,6.96956522 C257.032696,6.96956522 257.544,7.48086957 257.544,8.12 L257.544,8.24782609 Z M264.431391,6.84173913 L264.431391,6.07478261 C264.431391,5.98530435 264.393043,5.94695652 264.303565,5.94695652 L259.957478,5.94695652 C259.868,5.94695652 259.829652,5.98530435 259.829652,6.07478261 L259.829652,6.84173913 C259.829652,6.93121739 259.868,6.96956522 259.957478,6.96956522 L261.427478,6.96956522 C261.516957,6.96956522 261.555304,7.00791304 261.555304,7.0973913 L261.555304,13.8721739 C261.555304,13.9616522 261.593652,14 261.68313,14 L262.577913,14 C262.667391,14 262.705739,13.9616522 262.705739,13.8721739 L262.705739,7.0973913 C262.705739,7.00791304 262.744087,6.96956522 262.833565,6.96956522 L264.303565,6.96956522 C264.393043,6.96956522 264.431391,6.93121739 264.431391,6.84173913 L264.431391,6.84173913 Z M267.803565,6.84173913 L268.008087,6.84173913 C268.557739,6.84173913 268.775043,7.16130435 269.069043,7.55756522 C269.107391,7.60869565 269.120174,7.63426087 269.171304,7.63426087 C269.184087,7.63426087 269.209652,7.63426087 269.235217,7.62147826 L270.053304,7.21243478 C270.104435,7.18686957 270.13,7.14852174 270.13,7.11017391 C270.13,6.62443478 269.260783,5.81913043 268.008087,5.81913043 L267.803565,5.81913043 C266.410261,5.81913043 265.502696,6.68834783 265.502696,7.99217391 C265.502696,9.296 266.244087,9.80730435 267.611826,10.4464348 C268.60887,10.9066087 269.158522,11.2261739 269.158522,11.9547826 C269.158522,12.593913 268.634435,13.1052174 268.008087,13.1052174 L267.471217,13.1052174 C266.883217,13.1052174 266.704261,12.7728696 266.410261,12.3766087 C266.371913,12.3254783 266.346348,12.2871304 266.295217,12.2871304 C266.282435,12.2871304 266.25687,12.299913 266.231304,12.3126957 L265.426,12.7217391 C265.37487,12.7473043 265.349304,12.7728696 265.349304,12.8112174 C265.349304,13.0157391 265.579391,13.3736522 266.077913,13.7571304 C266.35913,13.9744348 266.857652,14.1278261 267.471217,14.1278261 L268.008087,14.1278261 C269.401391,14.1278261 270.308957,13.2458261 270.308957,11.9547826 C270.308957,10.702087 269.669826,10.0373913 268.31487,9.41104348 C267.279478,8.92530435 266.65313,8.68243478 266.65313,7.99217391 C266.65313,7.34026087 267.177217,6.84173913 267.803565,6.84173913 L267.803565,6.84173913 Z M281.182087,13.9872174 L281.182087,13.0924348 C281.182087,13.0157391 281.143739,12.9901739 281.079826,12.9646087 C280.658,12.7856522 280.12113,12.6194783 279.609826,12.0442609 L279.571478,11.9547826 L279.571478,11.6991304 C279.571478,11.0727826 280.095565,10.5486957 280.721913,10.5486957 L281.054261,10.5486957 C281.143739,10.5486957 281.182087,10.5103478 281.182087,10.4208696 L281.182087,9.52608696 C281.182087,9.4366087 281.143739,9.39826087 281.054261,9.39826087 L280.824174,9.39826087 C280.057217,9.39826087 279.456435,9.66669565 279.162435,10.0629565 C278.778957,10.5870435 278.676696,10.9321739 278.587217,10.9321739 C278.484957,10.9321739 278.331565,10.702087 278.012,10.4208696 C277.833043,10.2546957 277.718,10.178 277.718,10.1013043 C277.718,9.93513043 278.114261,9.884 278.408261,9.52608696 C278.715043,9.1426087 278.881217,8.72078261 278.881217,8.37565217 L278.881217,8.12 C278.881217,6.71391304 277.986435,5.81913043 276.580348,5.81913043 C275.161478,5.81913043 274.279478,6.70113043 274.279478,8.14556522 C274.279478,8.8486087 274.560696,9.16817391 274.880261,9.53886957 C275.033652,9.71782609 275.148696,9.80730435 275.148696,9.89678261 C275.148696,9.98626087 274.880261,10.114087 274.675739,10.4336522 C274.407304,10.8426957 274.279478,11.2261739 274.279478,11.5329565 L274.279478,11.8525217 C274.279478,13.2458261 275.161478,14.1278261 276.580348,14.1278261 L276.963826,14.1278261 C277.615739,14.1278261 278.114261,13.9744348 278.446609,13.6804348 C278.766174,13.3992174 278.894,13.1946957 278.957913,13.1946957 C279.009043,13.1946957 279.13687,13.3097391 279.379739,13.475913 C279.865478,13.8082609 280.300087,14.1150435 281.041478,14.1150435 C281.143739,14.1150435 281.182087,14.0766957 281.182087,13.9872174 L281.182087,13.9872174 Z M277.730783,8.24782609 C277.730783,8.82304348 277.334522,9.25765217 276.567565,9.4493913 C275.813391,8.96365217 275.429913,8.50347826 275.429913,7.99217391 C275.429913,7.35304348 275.941217,6.84173913 276.580348,6.84173913 C277.219478,6.84173913 277.730783,7.36582609 277.730783,7.99217391 L277.730783,8.24782609 Z M278.101478,12.3382609 C277.794696,12.8495652 277.411217,13.1052174 276.963826,13.1052174 L276.580348,13.1052174 C275.941217,13.1052174 275.429913,12.593913 275.429913,11.9547826 L275.429913,11.5713043 C275.429913,11.1366957 275.634435,10.8043478 276.043478,10.5231304 L276.171304,10.535913 C276.899913,10.9193913 277.513478,11.4690435 278.088696,12.2232174 L278.101478,12.3382609 Z M289.843826,12.7217391 L289.038522,12.3126957 C289.012957,12.299913 288.987391,12.2871304 288.961826,12.2871304 C288.872348,12.2871304 288.757304,12.5044348 288.476087,12.8367826 C288.361043,12.9773913 288.092609,13.1052174 287.785826,13.1052174 L287.402348,13.1052174 C286.763217,13.1052174 286.251913,12.593913 286.251913,11.9547826 L286.251913,7.99217391 C286.251913,7.35304348 286.763217,6.84173913 287.402348,6.84173913 L287.785826,6.84173913 C288.335478,6.84173913 288.552783,7.16130435 288.846783,7.55756522 C288.88513,7.60869565 288.897913,7.63426087 288.949043,7.63426087 C288.961826,7.63426087 288.987391,7.63426087 289.012957,7.62147826 L289.831043,7.21243478 C289.882174,7.18686957 289.907739,7.14852174 289.907739,7.11017391 C289.907739,6.61165217 289.038522,5.81913043 287.785826,5.81913043 L287.402348,5.81913043 C286.009043,5.81913043 285.101478,6.68834783 285.101478,7.99217391 L285.101478,11.9547826 C285.101478,13.2586087 286.009043,14.1278261 287.402348,14.1278261 L287.785826,14.1278261 C288.463304,14.1278261 289.000174,13.9488696 289.383652,13.5909565 C289.76713,13.2330435 289.920522,12.9006957 289.920522,12.8112174 C289.920522,12.7728696 289.894957,12.7473043 289.843826,12.7217391 L289.843826,12.7217391 Z M296.334957,11.9547826 L296.334957,6.07478261 C296.334957,5.98530435 296.283826,5.94695652 296.20713,5.94695652 L295.312348,5.94695652 C295.22287,5.94695652 295.184522,5.98530435 295.184522,6.07478261 L295.184522,11.9547826 C295.184522,12.593913 294.673217,13.1052174 294.034087,13.1052174 L293.650609,13.1052174 C293.011478,13.1052174 292.500174,12.593913 292.500174,11.9547826 L292.500174,6.07478261 C292.500174,5.98530435 292.449043,5.94695652 292.372348,5.94695652 L291.477565,5.94695652 C291.388087,5.94695652 291.349739,5.98530435 291.349739,6.07478261 L291.349739,11.9547826 C291.349739,13.2586087 292.257304,14.1278261 293.650609,14.1278261 L294.034087,14.1278261 C295.427391,14.1278261 296.334957,13.2586087 296.334957,11.9547826 L296.334957,11.9547826 Z M302.966696,13.8721739 L302.966696,13.1052174 C302.966696,13.0157391 302.915565,12.9773913 302.83887,12.9773913 L299.643217,12.9773913 C299.553739,12.9773913 299.515391,12.9390435 299.515391,12.8495652 L299.515391,6.07478261 C299.515391,5.98530435 299.464261,5.94695652 299.387565,5.94695652 L298.492783,5.94695652 C298.403304,5.94695652 298.364957,5.98530435 298.364957,6.07478261 L298.364957,13.8721739 C298.364957,13.9616522 298.403304,14 298.492783,14 L302.83887,14 C302.928348,14 302.966696,13.9616522 302.966696,13.8721739 L302.966696,13.8721739 Z M308.384087,6.84173913 L308.384087,6.07478261 C308.384087,5.98530435 308.345739,5.94695652 308.256261,5.94695652 L303.910174,5.94695652 C303.820696,5.94695652 303.782348,5.98530435 303.782348,6.07478261 L303.782348,6.84173913 C303.782348,6.93121739 303.820696,6.96956522 303.910174,6.96956522 L305.380174,6.96956522 C305.469652,6.96956522 305.508,7.00791304 305.508,7.0973913 L305.508,13.8721739 C305.508,13.9616522 305.546348,14 305.635826,14 L306.530609,14 C306.620087,14 306.658435,13.9616522 306.658435,13.8721739 L306.658435,7.0973913 C306.658435,7.00791304 306.696783,6.96956522 306.786261,6.96956522 L308.256261,6.96956522 C308.345739,6.96956522 308.384087,6.93121739 308.384087,6.84173913 L308.384087,6.84173913 Z M314.696261,11.9547826 L314.696261,6.07478261 C314.696261,5.98530435 314.64513,5.94695652 314.568435,5.94695652 L313.673652,5.94695652 C313.584174,5.94695652 313.545826,5.98530435 313.545826,6.07478261 L313.545826,11.9547826 C313.545826,12.593913 313.034522,13.1052174 312.395391,13.1052174 L312.011913,13.1052174 C311.372783,13.1052174 310.861478,12.593913 310.861478,11.9547826 L310.861478,6.07478261 C310.861478,5.98530435 310.810348,5.94695652 310.733652,5.94695652 L309.83887,5.94695652 C309.749391,5.94695652 309.711043,5.98530435 309.711043,6.07478261 L309.711043,11.9547826 C309.711043,13.2586087 310.618609,14.1278261 312.011913,14.1278261 L312.395391,14.1278261 C313.788696,14.1278261 314.696261,13.2586087 314.696261,11.9547826 L314.696261,11.9547826 Z M321.775391,13.8338261 L320.535478,10.2546957 C320.522696,10.241913 320.522696,10.2291304 320.522696,10.2163478 C320.522696,10.0885217 320.752783,10.0501739 320.98287,9.83286957 C321.468609,9.37269565 321.711478,8.82304348 321.711478,8.37565217 L321.711478,8.24782609 C321.711478,6.84173913 320.816696,5.94695652 319.410609,5.94695652 L316.854087,5.94695652 C316.764609,5.94695652 316.726261,5.98530435 316.726261,6.07478261 L316.726261,13.8721739 C316.726261,13.9616522 316.764609,14 316.854087,14 L317.74887,14 C317.838348,14 317.876696,13.9616522 317.876696,13.8721739 L317.876696,10.5486957 C317.876696,10.4592174 317.915043,10.4208696 318.004522,10.4208696 L319.27,10.4208696 L319.372261,10.4975652 L320.561043,13.9105217 L320.676087,14 L321.660348,14 C321.737043,14 321.788174,13.9616522 321.788174,13.8977391 C321.788174,13.8721739 321.788174,13.8593913 321.775391,13.8338261 L321.775391,13.8338261 Z M320.561043,8.24782609 C320.561043,8.88695652 320.049739,9.39826087 319.410609,9.39826087 L318.004522,9.39826087 C317.915043,9.39826087 317.876696,9.35991304 317.876696,9.27043478 L317.876696,7.0973913 C317.876696,7.00791304 317.915043,6.96956522 318.004522,6.96956522 L319.410609,6.96956522 C320.049739,6.96956522 320.561043,7.48086957 320.561043,8.12 L320.561043,8.24782609 Z M328.151478,13.8721739 L328.151478,13.1052174 C328.151478,13.0157391 328.100348,12.9773913 328.023652,12.9773913 L324.828,12.9773913 C324.738522,12.9773913 324.700174,12.9390435 324.700174,12.8495652 L324.700174,10.5486957 C324.700174,10.4592174 324.738522,10.4208696 324.828,10.4208696 L327.448435,10.4208696 C327.537913,10.4208696 327.576261,10.3825217 327.576261,10.2930435 L327.576261,9.52608696 C327.576261,9.4366087 327.537913,9.39826087 327.448435,9.39826087 L324.828,9.39826087 C324.738522,9.39826087 324.700174,9.35991304 324.700174,9.27043478 L324.700174,7.0973913 C324.700174,7.00791304 324.738522,6.96956522 324.828,6.96956522 L328.023652,6.96956522 C328.11313,6.96956522 328.151478,6.93121739 328.151478,6.84173913 L328.151478,6.07478261 C328.151478,5.98530435 328.100348,5.94695652 328.023652,5.94695652 L323.677565,5.94695652 C323.588087,5.94695652 323.549739,5.98530435 323.549739,6.07478261 L323.549739,13.8721739 C323.549739,13.9616522 323.588087,14 323.677565,14 L328.023652,14 C328.11313,14 328.151478,13.9616522 328.151478,13.8721739 L328.151478,13.8721739 Z M337.350087,13.8338261 L334.972522,6.03643478 C334.946957,5.97252174 334.908609,5.94695652 334.844696,5.94695652 L334.154435,5.94695652 C334.077739,5.94695652 334.039391,5.97252174 334.026609,6.03643478 L331.649043,13.8338261 C331.649043,13.8593913 331.636261,13.8721739 331.636261,13.8849565 C331.636261,13.9616522 331.687391,14 331.77687,14 L332.735565,14 C332.799478,14 332.850609,13.9744348 332.863391,13.9105217 L333.336348,12.2232174 C333.34913,12.1593043 333.387478,12.1465217 333.464174,12.1465217 L335.534957,12.1465217 C335.611652,12.1465217 335.65,12.1593043 335.662783,12.2232174 L336.135739,13.9105217 C336.148522,13.9744348 336.199652,14 336.263565,14 L337.222261,14 C337.311739,14 337.36287,13.9616522 337.36287,13.8849565 C337.36287,13.8721739 337.350087,13.8593913 337.350087,13.8338261 L337.350087,13.8338261 Z M335.292087,10.9577391 C335.292087,10.9705217 335.30487,10.996087 335.30487,11.0088696 C335.30487,11.0855652 335.253739,11.123913 335.164261,11.123913 L333.822087,11.123913 C333.732609,11.123913 333.681478,11.0855652 333.681478,11.0088696 C333.681478,10.996087 333.694261,10.9833043 333.694261,10.9577391 L334.320609,8.5673913 L334.474,7.99217391 L334.52513,7.99217391 C334.589043,8.23504348 334.640174,8.42678261 334.678522,8.5546087 L335.292087,10.9577391 Z M343.815652,13.8721739 L343.815652,6.07478261 C343.815652,5.98530435 343.777304,5.94695652 343.687826,5.94695652 L342.793043,5.94695652 C342.703565,5.94695652 342.665217,5.98530435 342.665217,6.07478261 L342.72913,11.7374783 L339.699652,6.01086957 L339.584609,5.94695652 L338.766522,5.94695652 C338.677043,5.94695652 338.638696,5.98530435 338.638696,6.07478261 L338.638696,13.8721739 C338.638696,13.9616522 338.677043,14 338.766522,14 L339.661304,14 C339.750783,14 339.78913,13.9616522 339.78913,13.8721739 L339.712435,8.19669565 L342.754696,13.936087 L342.869739,14 L343.687826,14 C343.777304,14 343.815652,13.9616522 343.815652,13.8721739 L343.815652,13.8721739 Z M351.022609,11.6991304 L351.022609,8.24782609 C351.022609,6.84173913 350.127826,5.94695652 348.721739,5.94695652 L346.165217,5.94695652 C346.075739,5.94695652 346.037391,5.98530435 346.037391,6.07478261 L346.037391,13.8721739 C346.037391,13.9616522 346.075739,14 346.165217,14 L348.721739,14 C350.140609,14 351.022609,13.118 351.022609,11.6991304 L351.022609,11.6991304 Z M349.872174,11.8269565 C349.872174,12.4533043 349.36087,12.9773913 348.721739,12.9773913 L347.315652,12.9773913 C347.226174,12.9773913 347.187826,12.9390435 347.187826,12.8495652 L347.187826,7.0973913 C347.187826,7.00791304 347.226174,6.96956522 347.315652,6.96956522 L348.721739,6.96956522 C349.36087,6.96956522 349.872174,7.48086957 349.872174,8.12 L349.872174,11.8269565 Z M360.822,13.8721739 L360.822,6.07478261 C360.822,5.98530435 360.783652,5.94695652 360.694174,5.94695652 L359.799391,5.94695652 C359.709913,5.94695652 359.671565,5.98530435 359.671565,6.07478261 L359.735478,11.7374783 L356.706,6.01086957 L356.590957,5.94695652 L355.77287,5.94695652 C355.683391,5.94695652 355.645043,5.98530435 355.645043,6.07478261 L355.645043,13.8721739 C355.645043,13.9616522 355.683391,14 355.77287,14 L356.667652,14 C356.75713,14 356.795478,13.9616522 356.795478,13.8721739 L356.718783,8.19669565 L359.761043,13.936087 L359.876087,14 L360.694174,14 C360.783652,14 360.822,13.9616522 360.822,13.8721739 L360.822,13.8721739 Z M367.837217,11.9547826 L367.837217,7.99217391 C367.837217,6.68834783 366.929652,5.81913043 365.536348,5.81913043 L365.15287,5.81913043 C363.759565,5.81913043 362.852,6.68834783 362.852,7.99217391 L362.852,11.9547826 C362.852,13.2586087 363.759565,14.1278261 365.15287,14.1278261 L365.536348,14.1278261 C366.929652,14.1278261 367.837217,13.2586087 367.837217,11.9547826 L367.837217,11.9547826 Z M366.686783,11.9547826 C366.686783,12.593913 366.175478,13.1052174 365.536348,13.1052174 L365.15287,13.1052174 C364.513739,13.1052174 364.002435,12.593913 364.002435,11.9547826 L364.002435,7.99217391 C364.002435,7.35304348 364.513739,6.84173913 365.15287,6.84173913 L365.536348,6.84173913 C366.175478,6.84173913 366.686783,7.35304348 366.686783,7.99217391 L366.686783,11.9547826 Z M375.044174,13.8721739 L375.044174,6.07478261 C375.044174,5.98530435 375.005826,5.94695652 374.916348,5.94695652 L374.021565,5.94695652 C373.932087,5.94695652 373.893739,5.98530435 373.893739,6.07478261 L373.957652,11.7374783 L370.928174,6.01086957 L370.81313,5.94695652 L369.995043,5.94695652 C369.905565,5.94695652 369.867217,5.98530435 369.867217,6.07478261 L369.867217,13.8721739 C369.867217,13.9616522 369.905565,14 369.995043,14 L370.889826,14 C370.979304,14 371.017652,13.9616522 371.017652,13.8721739 L370.940957,8.19669565 L373.983217,13.936087 L374.098261,14 L374.916348,14 C375.005826,14 375.044174,13.9616522 375.044174,13.8721739 L375.044174,13.8721739 Z M382.542696,5.94695652 L379.986174,5.94695652 C379.896696,5.94695652 379.858348,5.98530435 379.858348,6.07478261 L379.858348,13.8721739 C379.858348,13.9616522 379.896696,14 379.986174,14 L380.880957,14 C380.970435,14 381.008783,13.9616522 381.008783,13.8721739 L381.008783,10.5486957 C381.008783,10.4592174 381.04713,10.4208696 381.136609,10.4208696 L382.542696,10.4208696 C383.923217,10.4208696 384.843565,9.52608696 384.843565,8.24782609 C384.843565,6.84173913 383.948783,5.94695652 382.542696,5.94695652 L382.542696,5.94695652 Z M383.69313,8.24782609 C383.69313,8.88695652 383.181826,9.39826087 382.542696,9.39826087 L381.136609,9.39826087 C381.04713,9.39826087 381.008783,9.35991304 381.008783,9.27043478 L381.008783,7.0973913 C381.008783,7.00791304 381.04713,6.96956522 381.136609,6.96956522 L382.542696,6.96956522 C383.181826,6.96956522 383.69313,7.48086957 383.69313,8.12 L383.69313,8.24782609 Z M391.411391,13.8338261 L390.171478,10.2546957 C390.158696,10.241913 390.158696,10.2291304 390.158696,10.2163478 C390.158696,10.0885217 390.388783,10.0501739 390.61887,9.83286957 C391.104609,9.37269565 391.347478,8.82304348 391.347478,8.37565217 L391.347478,8.24782609 C391.347478,6.84173913 390.452696,5.94695652 389.046609,5.94695652 L386.490087,5.94695652 C386.400609,5.94695652 386.362261,5.98530435 386.362261,6.07478261 L386.362261,13.8721739 C386.362261,13.9616522 386.400609,14 386.490087,14 L387.38487,14 C387.474348,14 387.512696,13.9616522 387.512696,13.8721739 L387.512696,10.5486957 C387.512696,10.4592174 387.551043,10.4208696 387.640522,10.4208696 L388.906,10.4208696 L389.008261,10.4975652 L390.197043,13.9105217 L390.312087,14 L391.296348,14 C391.373043,14 391.424174,13.9616522 391.424174,13.8977391 C391.424174,13.8721739 391.424174,13.8593913 391.411391,13.8338261 L391.411391,13.8338261 Z M390.197043,8.24782609 C390.197043,8.88695652 389.685739,9.39826087 389.046609,9.39826087 L387.640522,9.39826087 C387.551043,9.39826087 387.512696,9.35991304 387.512696,9.27043478 L387.512696,7.0973913 C387.512696,7.00791304 387.551043,6.96956522 387.640522,6.96956522 L389.046609,6.96956522 C389.685739,6.96956522 390.197043,7.48086957 390.197043,8.12 L390.197043,8.24782609 Z M397.979217,11.9547826 L397.979217,7.99217391 C397.979217,6.68834783 397.071652,5.81913043 395.678348,5.81913043 L395.29487,5.81913043 C393.901565,5.81913043 392.994,6.68834783 392.994,7.99217391 L392.994,11.9547826 C392.994,13.2586087 393.901565,14.1278261 395.29487,14.1278261 L395.678348,14.1278261 C397.071652,14.1278261 397.979217,13.2586087 397.979217,11.9547826 L397.979217,11.9547826 Z M396.828783,11.9547826 C396.828783,12.593913 396.317478,13.1052174 395.678348,13.1052174 L395.29487,13.1052174 C394.655739,13.1052174 394.144435,12.593913 394.144435,11.9547826 L394.144435,7.99217391 C394.144435,7.35304348 394.655739,6.84173913 395.29487,6.84173913 L395.678348,6.84173913 C396.317478,6.84173913 396.828783,7.35304348 396.828783,7.99217391 L396.828783,11.9547826 Z M404.610957,6.84173913 L404.610957,6.07478261 C404.610957,5.98530435 404.559826,5.94695652 404.48313,5.94695652 L400.137043,5.94695652 C400.047565,5.94695652 400.009217,5.98530435 400.009217,6.07478261 L400.009217,13.8721739 C400.009217,13.9616522 400.047565,14 400.137043,14 L401.031826,14 C401.121304,14 401.159652,13.9616522 401.159652,13.8721739 L401.159652,10.5486957 C401.159652,10.4592174 401.198,10.4208696 401.287478,10.4208696 L403.907913,10.4208696 C403.997391,10.4208696 404.035739,10.3825217 404.035739,10.2930435 L404.035739,9.52608696 C404.035739,9.4366087 403.997391,9.39826087 403.907913,9.39826087 L401.287478,9.39826087 C401.198,9.39826087 401.159652,9.35991304 401.159652,9.27043478 L401.159652,7.0973913 C401.159652,7.00791304 401.198,6.96956522 401.287478,6.96956522 L404.48313,6.96956522 C404.572609,6.96956522 404.610957,6.93121739 404.610957,6.84173913 L404.610957,6.84173913 Z M407.280087,13.8721739 L407.280087,6.07478261 C407.280087,5.98530435 407.228957,5.94695652 407.152261,5.94695652 L406.257478,5.94695652 C406.168,5.94695652 406.129652,5.98530435 406.129652,6.07478261 L406.129652,13.8721739 C406.129652,13.9616522 406.168,14 406.257478,14 L407.152261,14 C407.241739,14 407.280087,13.9616522 407.280087,13.8721739 L407.280087,13.8721739 Z M413.400522,6.84173913 L413.400522,6.07478261 C413.400522,5.98530435 413.362174,5.94695652 413.272696,5.94695652 L408.926609,5.94695652 C408.83713,5.94695652 408.798783,5.98530435 408.798783,6.07478261 L408.798783,6.84173913 C408.798783,6.93121739 408.83713,6.96956522 408.926609,6.96956522 L410.396609,6.96956522 C410.486087,6.96956522 410.524435,7.00791304 410.524435,7.0973913 L410.524435,13.8721739 C410.524435,13.9616522 410.562783,14 410.652261,14 L411.547043,14 C411.636522,14 411.67487,13.9616522 411.67487,13.8721739 L411.67487,7.0973913 C411.67487,7.00791304 411.713217,6.96956522 411.802696,6.96956522 L413.272696,6.96956522 C413.362174,6.96956522 413.400522,6.93121739 413.400522,6.84173913 L413.400522,6.84173913 Z M416.772696,6.84173913 L416.977217,6.84173913 C417.52687,6.84173913 417.744174,7.16130435 418.038174,7.55756522 C418.076522,7.60869565 418.089304,7.63426087 418.140435,7.63426087 C418.153217,7.63426087 418.178783,7.63426087 418.204348,7.62147826 L419.022435,7.21243478 C419.073565,7.18686957 419.09913,7.14852174 419.09913,7.11017391 C419.09913,6.62443478 418.229913,5.81913043 416.977217,5.81913043 L416.772696,5.81913043 C415.379391,5.81913043 414.471826,6.68834783 414.471826,7.99217391 C414.471826,9.296 415.213217,9.80730435 416.580957,10.4464348 C417.578,10.9066087 418.127652,11.2261739 418.127652,11.9547826 C418.127652,12.593913 417.603565,13.1052174 416.977217,13.1052174 L416.440348,13.1052174 C415.852348,13.1052174 415.673391,12.7728696 415.379391,12.3766087 C415.341043,12.3254783 415.315478,12.2871304 415.264348,12.2871304 C415.251565,12.2871304 415.226,12.299913 415.200435,12.3126957 L414.39513,12.7217391 C414.344,12.7473043 414.318435,12.7728696 414.318435,12.8112174 C414.318435,13.0157391 414.548522,13.3736522 415.047043,13.7571304 C415.328261,13.9744348 415.826783,14.1278261 416.440348,14.1278261 L416.977217,14.1278261 C418.370522,14.1278261 419.278087,13.2458261 419.278087,11.9547826 C419.278087,10.702087 418.638957,10.0373913 417.284,9.41104348 C416.248609,8.92530435 415.622261,8.68243478 415.622261,7.99217391 C415.622261,7.34026087 416.146348,6.84173913 416.772696,6.84173913 L416.772696,6.84173913 Z" id="WEBSITE-DESIGN-+-DEV"></path>
                <path d="M26.6113237,6.00498772 L24.7360696,6.00498772 C24.6166957,6.00498772 24.5659796,6.05395911 24.5659796,6.16893913 L24.5659796,8.35475808 C24.5659796,8.46982372 24.6166957,8.51888072 24.7360696,8.51888072 L26.6113237,8.51888072 C27.275874,8.51888072 27.8386368,7.99329447 27.8386368,7.33594779 L27.8386368,7.18757819 C27.8386368,6.54709754 27.275874,6.00498772 26.6113237,6.00498772 L26.6113237,6.00498772 Z M41.3251359,14.4677911 C41.3251359,14.5825142 41.2739757,14.6319137 41.1551347,14.6319137 L39.5860427,14.6319137 C39.4672017,14.6319137 39.4160414,14.5825142 39.4160414,14.4677911 L39.5691669,8.05896064 L37.6425749,13.1197081 C37.5918588,13.1687651 37.5406985,13.2189351 37.4898936,13.2189351 L36.6200805,13.2189351 C36.5519557,13.2189351 36.5007954,13.1854599 36.4665109,13.1197081 L34.5400966,8.05896064 L34.6931332,14.4677911 C34.6931332,14.5825142 34.6424171,14.6319137 34.5226879,14.6319137 L32.9375195,14.6319137 C32.8177903,14.6319137 32.7666301,14.5825142 32.7666301,14.4677911 L32.7666301,4.44363955 C32.7666301,4.32857391 32.8177903,4.27968814 32.9375195,4.27968814 L34.4037581,4.27968814 C34.454563,4.29638293 34.5066115,4.32857391 34.5573276,4.37797337 L37.0465047,10.8856027 L39.5353265,4.37797337 C39.5860427,4.32857391 39.637647,4.29638293 39.6883632,4.27968814 L41.1551347,4.27968814 C41.2739757,4.27968814 41.3251359,4.32857391 41.3251359,4.44363955 L41.3251359,14.4677911 Z M29.7035878,14.6319137 L27.9476188,14.6319137 C27.8964585,14.6319137 27.8452983,14.5984385 27.7936051,14.5168481 L26.2930821,10.3433217 L26.1573653,10.2442659 L24.6398777,10.2442659 C24.5205926,10.2442659 24.4697876,10.2934085 24.4697876,10.4090735 L24.4697876,14.4677911 C24.4697876,14.5825142 24.4177392,14.6319137 24.2984541,14.6319137 L22.6792677,14.6319137 C22.5599826,14.6319137 22.5087335,14.5825142 22.5087335,14.4677911 L22.5087335,4.44363955 C22.5087335,4.32857391 22.5599826,4.27968814 22.6792677,4.27968814 L26.5155759,4.27968814 C28.4590436,4.27968814 29.6863567,5.46262107 29.6863567,7.33594779 L29.6863567,7.4998992 C29.6863567,8.27222589 29.2772523,8.89729597 28.9358287,9.25858836 C28.6291337,9.53777662 28.2369939,9.73528884 28.2369939,9.88254545 L28.2369939,9.89941147 L29.856358,14.4176211 C29.8736778,14.4507538 29.8736778,14.4834585 29.8736778,14.499982 C29.8736778,14.5825142 29.8225176,14.6319137 29.7035878,14.6319137 L29.7035878,14.6319137 Z M19.6168471,11.8877182 C19.6168471,13.629627 18.3548943,14.7958651 16.4459775,14.7958651 L15.6102712,14.7958651 C13.6838569,14.7958651 12.4392239,13.629627 12.4392239,11.8877182 L12.4392239,7.02362679 C12.4392239,5.28163242 13.7011768,4.11556551 15.6102712,4.11556551 L16.4459775,4.11556551 C18.3548943,4.11556551 19.6168471,5.28163242 19.6168471,7.02362679 L19.6168471,11.8877182 Z M10.70244,5.84069386 C10.70244,5.95567388 10.6515463,6.00498772 10.5321723,6.00498772 L6.47452502,6.00498772 C6.35523992,6.00498772 6.30443495,6.05395911 6.30443495,6.16893913 L6.30443495,8.35475808 C6.30443495,8.46982372 6.35523992,8.51888072 6.47452502,8.51888072 L9.7992307,8.51888072 C9.91860462,8.51888072 9.96949841,8.56802333 9.96949841,8.68308896 L9.96949841,10.0798864 C9.96949841,10.1948665 9.91860462,10.2442659 9.7992307,10.2442659 L6.47452502,10.2442659 C6.35523992,10.2442659 6.30443495,10.2934085 6.30443495,10.4090735 L6.30443495,14.4677911 C6.30443495,14.5825142 6.25354116,14.6319137 6.13416725,14.6319137 L4.51355975,14.6319137 C4.39445229,14.6319137 4.34346968,14.5825142 4.34346968,14.4677911 L4.34346968,4.44363955 C4.34346968,4.32857391 4.39445229,4.27968814 4.51355975,4.27968814 L10.5321723,4.27968814 C10.6341376,4.27968814 10.70244,4.32857391 10.70244,4.44363955 L10.70244,5.84069386 Z M1.09781369,17.8115436 L44.5545379,17.8115436 L44.5545379,1.05827849 L1.09781369,1.05827849 L1.09781369,17.8115436 Z M16.542347,5.84069386 L15.7064632,5.84069386 C15.0245041,5.84069386 14.4793277,6.36628011 14.4793277,7.02362679 L14.4793277,11.8877182 C14.4793277,12.5448937 15.0245041,13.0704799 15.7064632,13.0704799 L16.542347,13.0704799 C17.2241284,13.0704799 17.7528732,12.5615884 17.7528732,11.8877182 L17.7528732,7.02362679 C17.7528732,6.34958532 17.2241284,5.84069386 16.542347,5.84069386 L16.542347,5.84069386 Z M0.548995667,18.3405544 L45.1035335,18.3405544 L45.1035335,0.529010823 L0.548995667,0.529010823 L0.548995667,18.3405544 Z M0,18.8695652 L45.6521739,18.8695652 L45.6521739,0 L4.35047979,0 L0,0 L0,18.8695652 Z" id="Fill-1"></path>
            </g>
        </g>
    </g>
</svg>