<?xml version="1.0" encoding="UTF-8"?>
<svg width="137px" height="42px" viewBox="0 0 137 42" version="1.1" xmlns="http://www.w3.org/2000/svg" xmlns:xlink="http://www.w3.org/1999/xlink">
    <title>PRX-Logo-Horizontal-White</title>
    <g id="ðŸ› ï¸-For-Devs---Templates---Parishes" stroke="none" stroke-width="1" fill="none" fill-rule="evenodd">
        <g id="FINANCIALS" transform="translate(-851.000000, -52.000000)" fill="#FFFFFF" fill-rule="nonzero">
            <g id="PRX-Logo-Horizontal-White" transform="translate(851.000000, 52.000000)">
                <g id="Group">
                    <path d="M30.9264701,20.5105447 L40.7459874,10.6910274 C40.9054617,10.531671 40.9951587,10.3152668 40.9951587,10.0899047 C40.9951587,9.86454256 40.9054617,9.64813836 40.7459874,9.48878189 L31.5275929,0.269208708 C31.3682364,0.109734373 31.1518322,0.0200374257 30.9264701,0.0200374257 C30.701108,0.0200374257 30.4847038,0.109734373 30.3253473,0.269208708 L20.50583,10.088726 L20.4846139,10.0675099 L10.6650967,0.249171282 C10.5057402,0.089696947 10.289336,0 10.0639739,0 C9.83861177,0 9.62220757,0.089696947 9.46285111,0.249171282 L0.249171282,9.46756579 C0.089696947,9.62692226 0,9.84332646 0,10.0686886 C0,10.2940507 0.089696947,10.5104549 0.249171282,10.6698113 L10.0899047,20.5105447 L0.249171282,30.3500994 C0.089696947,30.5094559 0,30.7258601 0,30.9512222 C0,31.1765843 0.089696947,31.3929885 0.249171282,31.552345 L9.46285111,40.7730968 C9.62220757,40.9325712 9.83861177,41.0222681 10.0639739,41.0222681 C10.289336,41.0222681 10.5057402,40.9325712 10.6650967,40.7730968 L17.6110113,33.8271821 C17.6110113,33.8271821 17.834959,29.5639251 12.8338533,23.2603867 L30.3253473,40.7518807 C30.4847038,40.9113551 30.701108,41.001052 30.9264701,41.001052 C31.1518322,41.001052 31.3682364,40.9113551 31.5275929,40.7518807 L40.7459874,31.5334862 C40.9054617,31.3741298 40.9951587,31.1577256 40.9951587,30.9323634 C40.9951587,30.7070013 40.9054617,30.4905971 40.7459874,30.3312407 L30.9264701,20.5105447 Z" id="Path"></path>
                </g>
                <g id="Group" transform="translate(52.088349, 4.270800)">
                    <path d="M75.6648556,16.2397442 L84.7512388,1.09616506 C84.8184232,0.984073338 84.8537833,0.855715946 84.8537833,0.724883343 C84.8537833,0.329203118 84.5284698,0.00353601631 84.132436,0.00353601631 C84.132436,0.00353601631 84.132436,0.00353601631 84.132436,0.00353601631 L72.8266132,0.00353601631 C72.5731987,0.00412535236 72.3374643,0.138729706 72.2078103,0.357137647 L69.1703723,5.41835565 L66.134113,0.353601631 C66.0044591,0.13519369 65.7687246,0.000589336051 65.5153101,0 L54.2094873,0 C54.2093695,0 54.2092516,0 54.2091337,0 C53.8134535,0 53.4877864,0.325667102 53.4877864,0.721347327 C53.4877864,0.85217993 53.5233823,0.980537322 53.5906845,1.09262904 L62.6770677,16.2362082 L54.638524,29.6353527 L50.9056694,21.9303731 C52.6183979,21.0220884 54.0370476,19.6438671 54.9944829,17.9582482 C55.953922,16.2703897 56.4339952,14.2183216 56.4348203,11.8020438 C56.4348203,7.96193005 55.2561482,5.03528722 52.898804,3.02211527 C50.5414597,1.00894332 47.3527981,0.0023573442 43.3327012,0.0023573442 L28.4991128,0.0023573442 C28.4982877,0.0023573442 28.4975805,0.0023573442 28.4967554,0.0023573442 C28.0712548,0.0023573442 27.7211892,0.352422959 27.7211892,0.777923588 C27.7211892,0.778277189 27.7211892,0.778748658 27.7211892,0.77910226 L27.7211892,6.48033922 C27.1511833,5.14926481 26.2814412,3.9677639 25.1799721,3.02800863 C22.8226279,1.01483668 19.6327876,0.00825070472 15.6103333,0.00825070472 L0.775566243,0.00825070472 C0.350065614,0.00825070472 0,0.358316319 0,0.783816948 L0,31.7003862 C0,32.1258868 0.350065614,32.4759525 0.775566243,32.4759525 L10.2344099,32.4759525 C10.6599105,32.4759525 11.0099761,32.1258868 11.0099761,31.7003862 L11.0099761,23.6029088 L15.6067973,23.6029088 C19.6323161,23.6029088 22.8222743,22.5963229 25.1764361,20.5831509 C26.2799089,19.6425706 27.1509476,18.4593017 27.7211892,17.1261056 L27.7211892,31.7003862 C27.7211892,32.1258868 28.0712548,32.4759525 28.4967554,32.4759525 L37.7693688,32.4759525 C38.1948695,32.4759525 38.5449351,32.1258868 38.5449351,31.7003862 L38.5449351,23.6029088 L40.6358994,23.6029088 L44.6315978,31.8972244 C44.8019159,32.2504725 45.1610573,32.4759525 45.5533194,32.4759525 L65.5153101,32.4759525 C65.7687246,32.4753631 66.0044591,32.3407587 66.134113,32.1223508 L69.171551,27.0611328 L72.208989,32.1223508 C72.3386429,32.3407587 72.5743774,32.4753631 72.8277919,32.4759525 L84.1336147,32.4759525 C84.1336147,32.4759525 84.1336147,32.4759525 84.1336147,32.4759525 C84.5296485,32.4759525 84.854962,32.1502853 84.854962,31.7546051 C84.854962,31.6237725 84.8196018,31.4954151 84.7524175,31.3833234 L75.6648556,16.2397442 Z M13.379107,15.3804923 L11.0099761,15.3804923 L11.0099761,8.2259526 L13.379107,8.2259526 C16.1969584,8.2259526 17.6061788,9.41841517 17.6070042,11.8032224 C17.6078289,14.1880297 16.1984907,15.3804923 13.379107,15.3804923 Z M41.0095385,15.3804923 L38.5472924,15.3804923 L38.5472924,8.2259526 L41.0095385,8.2259526 C43.8273898,8.2259526 45.2366102,9.41841517 45.2374356,11.8032224 C45.2382604,14.1880297 43.8292757,15.3804923 41.0107171,15.3804923 L41.0095385,15.3804923 Z" id="Shape"></path>
                </g>
            </g>
        </g>
    </g>
</svg>