<?xml version="1.0" encoding="UTF-8"?>
<svg width="100px" height="100px" viewBox="0 0 100 100" version="1.1" xmlns="http://www.w3.org/2000/svg" xmlns:xlink="http://www.w3.org/1999/xlink">
    <title>Group 19</title>
    <g id="ðŸ› ï¸-For-Devs---Templates---Parishes" stroke="none" stroke-width="1" fill="none" fill-rule="evenodd">
        <g id="DONOR-SUPPORT" transform="translate(-756.000000, -5660.000000)">
            <g id="Group-19" transform="translate(756.000000, 5660.000000)">
                <circle id="Oval" fill="#FF9600" cx="50" cy="50" r="50"></circle>
                <path d="M49.8982882,64.746935 L61.2080875,53.4371358 C67.7809691,47.0406635 66.5395699,41.6634453 65.703259,39.651072 C64.4487925,36.6651804 61.5739735,34.6462735 58.5946156,34.7508123 C55.0664287,34.8161491 52.0413351,37.5668282 50.2968427,42.2776111 L49.8982882,43.3556683 L49.4997338,42.2776111 C47.7552413,37.5668282 44.7366814,34.8161491 41.2019608,34.7508123 L41.0647535,34.7508123 C38.1115304,34.7508123 35.3281829,36.7109162 34.0933174,39.651072 C33.2570065,41.6634453 32.0090737,47.0406635 38.588489,53.4240684 L49.8982882,64.746935 Z" id="Path" fill="#FFFFFF" fill-rule="nonzero"></path>
                <g id="MAKE-A-DONATION-Copy-2" transform="translate(52.216201, 66.572940) rotate(-102.000000) translate(-52.216201, -66.572940) translate(29.000000, 26.000000)" fill="#000000" fill-rule="nonzero">
                    <path d="M43.6351058,0.171583401 L44.7723664,4.84559195 L44.8118886,4.84709414 C44.7803421,4.0572401 44.7728587,3.44420885 44.7894384,3.00800039 L44.8954262,0.219486548 L46.4324023,0.277905021 L46.18838,6.6980739 L43.8785245,6.61027928 L42.712412,2.00113968 L42.6772812,1.9998044 L41.1910119,6.5081304 L38.876765,6.42016888 L39.1207873,-2.12407953e-13 L40.7148511,0.060588302 L40.6078618,2.87545031 C40.6022982,3.02182898 40.5939268,3.18422586 40.5827478,3.36264094 C40.5715688,3.54105602 40.5351723,3.97797718 40.4735584,4.67340441 L40.5130806,4.6749066 L41.9839543,0.10882527 L43.6351058,0.171583401 Z" id="Path"></path>
                    <path d="M31.4739232,1.37924305 L32.0418298,2.48714901 L34.0804089,2.03832449 L34.1390972,0.79246405 L36.0017149,0.382380175 L35.3416562,7.1333771 L33.0799062,7.63133609 L29.6198891,1.78743714 L31.4739232,1.37924305 Z M32.6998985,3.80019332 L33.1970529,4.77068397 C33.3103929,4.98571863 33.4521267,5.26499848 33.6222543,5.60852351 C33.792382,5.95204854 33.9090747,6.19934341 33.9723324,6.35040813 C33.9659565,6.19881941 33.9638281,5.94730041 33.9659473,5.59585113 C33.9680664,5.24440185 33.9909611,4.54789526 34.0346314,3.50633137 L32.6998985,3.80019332 Z" id="Shape"></path>
                    <path d="M21.6519358,5.0915067 L23.4415269,4.29225039 L25.6029082,6.01735431 L25.9469312,5.52680641 L25.0706165,3.56467627 L26.6635933,2.85323064 L29.283577,8.71955836 L27.6906002,9.43100399 L26.5526456,6.88304359 C26.5428823,7.0767111 26.4927481,7.39910538 26.4022429,7.85022643 L25.9732347,10.1980033 L24.2398192,10.9721708 L24.9158026,7.51782261 L21.6519358,5.0915067 Z" id="Path"></path>
                    <polygon id="Path" points="15.862381 8.94099289 18.9980698 6.76901033 22.6564091 12.0505507 19.5207202 14.2225333 18.7274962 13.0773566 20.4362299 11.8937762 19.8607045 11.062891 18.2784099 12.1588914 17.4851859 11.0137147 19.0674805 9.91771428 18.3768501 8.92065193 16.6681164 10.1042323"></polygon>
                    <path d="M7.52449576,17.9615706 L8.67738755,18.4314791 L9.93065806,16.7621794 L9.16298205,15.7791808 L10.3080755,14.253968 L14.2085428,19.8035619 L12.8180721,21.655606 L6.3846792,19.4797547 L7.52449576,17.9615706 Z M10.0323797,18.9981676 L11.0420386,19.4099972 C11.2681663,19.499172 11.5577066,19.6185541 11.9106597,19.7681434 C12.2636128,19.9177328 12.5133134,20.0291849 12.6597614,20.1024999 C12.5561054,19.9917062 12.3905256,19.8023661 12.1630219,19.5344797 C11.9355182,19.2665932 11.4988249,18.7235052 10.8529421,17.9052156 L10.0323797,18.9981676 Z" id="Shape"></path>
                    <path d="M4.23907907,32.7931176 C3.22392508,32.447841 2.53680266,31.9023635 2.17771182,31.1566851 C1.81862097,30.4110066 1.81124217,29.5319773 2.15557542,28.5195969 L2.82490264,26.5516959 L8.90750565,28.6205256 L8.19148117,30.7257219 C7.85941185,31.7020449 7.35342064,32.3708788 6.67350755,32.7322236 C5.99359446,33.0935684 5.1821183,33.1138664 4.23907907,32.7931176 Z M4.76101047,31.0675151 C5.31851307,31.2571343 5.76928545,31.2874453 6.1133276,31.1584483 C6.45736976,31.0294513 6.70580451,30.7402875 6.85863187,30.2909571 L7.02136471,29.8125034 L3.61394209,28.6535626 L3.4894161,29.0196837 C3.31960792,29.5189397 3.34000487,29.9343524 3.55060693,30.2659216 C3.76120899,30.5974909 4.16467684,30.8646887 4.76101047,31.0675151 Z" id="Shape"></path>
                    <path d="M3.03097883,41.5740075 C1.95554264,41.4639336 1.1650327,41.1165009 0.659449016,40.5317092 C0.153865327,39.9469175 -0.0468726256,39.1459482 0.0572351582,38.1288012 C0.159851427,37.1262266 0.519774377,36.3863237 1.13700401,35.9090926 C1.75423364,35.4318614 2.60056655,35.2482828 3.67600273,35.3583566 C4.73978107,35.4672373 5.52496697,35.8163338 6.03156044,36.4056464 C6.5381539,36.9949589 6.7395459,37.7967314 6.63573642,38.8109639 C6.53162863,39.8281109 6.17439641,40.5704979 5.56403977,41.038125 C4.95368312,41.5057521 4.10932947,41.6843796 3.03097883,41.5740075 Z M3.48111821,37.1760855 C2.24538666,37.049605 1.58352118,37.4162478 1.49552176,38.2760138 C1.4507763,38.713183 1.56768483,39.0527794 1.84624736,39.2948031 C2.12480989,39.5368267 2.58176742,39.6903536 3.21711996,39.7553837 C3.85538697,39.8207121 4.33776371,39.7618561 4.66425018,39.5788159 C4.99073665,39.3957757 5.17575602,39.0914999 5.21930827,38.6659886 C5.30790429,37.8003936 4.72850761,37.3037593 3.48111821,37.1760855 Z" id="Shape"></path>
                    <path d="M0.752258,50.9151096 L0.472322911,48.6560204 L4.67575248,45.7705247 L4.67088874,45.7312742 C3.97122349,45.874063 3.43531402,45.9685151 3.06316033,46.0146305 L0.189145331,46.3707642 L1.37709495e-13,44.8443526 L6.37603934,44.0542655 L6.6548936,46.3046323 L2.51143967,49.1738399 L2.51468216,49.2000069 C3.15218488,49.0796814 3.66573544,48.9953801 4.05533383,48.947103 L6.93807118,48.5898886 L7.12829734,50.1250225 L0.752258,50.9151096 Z" id="Path"></path>
                    <path d="M3.25190603,58.2684955 L4.26218351,57.5409566 L3.51289741,55.5926704 L2.27231304,55.7213677 L1.58770216,53.9412494 L8.36137274,53.5820505 L9.19268595,55.7436227 L3.93336202,60.0404105 L3.25190603,58.2684955 Z M5.46176929,56.6935289 L6.3467875,56.0565379 C6.54240659,55.91225 6.79728969,55.7302601 7.11143682,55.5105684 C7.42558394,55.2908767 7.65259637,55.1384388 7.79247409,55.0532548 C7.64355315,55.082278 7.39519405,55.1220786 7.04739677,55.1726567 C6.69959949,55.2232348 6.00752859,55.3049873 4.97118408,55.4179141 L5.46176929,56.6935289 Z" id="Shape"></path>
                    <polygon id="Path" points="6.59005596 64.6896156 5.68756343 63.206832 9.96323561 60.6044548 9.14756514 59.2643187 10.3600692 58.5263312 12.8916179 62.685633 11.6791138 63.4236206 10.8657281 62.0872384"></polygon>
                    <polygon id="Path" points="9.45721661 68.6881632 14.3941078 64.5765673 15.5105945 65.9171595 10.5737033 70.0287554"></polygon>
                    <path d="M20.0003684,74.0711611 C19.3116458,74.904432 18.5837387,75.368939 17.8166471,75.4646821 C17.0495556,75.5604252 16.2719563,75.2826 15.4838491,74.6312065 C14.7070329,73.9891453 14.2915493,73.2789522 14.2373983,72.5006273 C14.1832472,71.7223024 14.500533,70.9165045 15.1892557,70.0832337 C15.8705125,69.2589955 16.5968469,68.7998402 17.368259,68.7057677 C18.139671,68.6116952 18.9183015,68.8894224 19.7041505,69.5389495 C20.4922576,70.190343 20.9113013,70.8996777 20.9612816,71.6669536 C21.0112619,72.4342296 20.6909575,73.2356321 20.0003684,74.0711611 Z M16.5927648,71.2546774 C15.801387,72.2121486 15.7387806,72.9661865 16.4049457,73.5167914 C16.7436737,73.7967599 17.0910195,73.8881067 17.4469831,73.7908316 C17.8029467,73.6935565 18.1843723,73.3987766 18.59126,72.9064919 C19.0000141,72.411949 19.2189251,71.978095 19.2479932,71.60493 C19.2770612,71.2317649 19.1267476,70.9089309 18.7970524,70.6364282 C18.1263709,70.0820905 17.3916084,70.2881735 16.5927648,71.2546774 Z" id="Shape"></path>
                    <path d="M26.5128061,81.1458806 L24.4765909,80.1281992 L24.4010559,75.0302389 L24.3656776,75.0125572 C24.0971982,75.6742512 23.8791341,76.1728173 23.7114852,76.5082556 L22.4167902,79.0987301 L21.0409691,78.4111076 L23.9132666,72.6641064 L25.94162,73.6778585 L26.0367981,78.7168567 L26.0603836,78.7286445 C26.3131514,78.1311528 26.527289,77.6568259 26.7027964,77.305664 L28.0014207,74.7073276 L29.3851036,75.3988794 L26.5128061,81.1458806 Z" id="Path"></path>
                </g>
            </g>
        </g>
    </g>
</svg>