<?xml version="1.0" encoding="UTF-8"?>
<svg width="620px" height="620px" viewBox="0 0 620 620" version="1.1" xmlns="http://www.w3.org/2000/svg" xmlns:xlink="http://www.w3.org/1999/xlink">
    <title>Fill 1</title>
    <g id="ðŸ› ï¸-For-Devs---Templates---Parishes" stroke="none" stroke-width="1" fill="none" fill-rule="evenodd" fill-opacity="0.05">
        <g id="Stories-with-Impact" transform="translate(-69.000000, -1729.000000)" fill="#231F20">
            <g id="Group" transform="translate(38.000000, 1703.000000)">
                <path d="M498.541833,336.0148 L646.967107,187.589526 C649.377963,185.181629 650.733607,181.909436 650.733607,178.502566 C650.733607,175.095696 649.377963,171.823503 646.967107,169.415606 L507.628792,30.0772921 C505.220896,27.6664359 501.948703,26.3107918 498.541833,26.3107918 C495.134963,26.3107918 491.862769,27.6664359 489.454873,30.0772921 L341.029599,178.502566 L340.704008,178.176975 L192.278734,29.7665004 C189.870838,27.3556441 186.598644,26 183.191774,26 C179.784904,26 176.512711,27.3556441 174.104815,29.7665004 L34.7665004,169.104815 C32.3556441,171.512711 31,174.784904 31,178.191774 C31,181.598644 32.3556441,184.870838 34.7665004,187.278734 L183.502566,336.0148 L34.7665004,484.750865 C32.3556441,487.158762 31,490.430955 31,493.837825 C31,497.244695 32.3556441,500.516888 34.7665004,502.924785 L174.104815,642.2335 C176.512711,644.644356 179.784904,646 183.191774,646 C186.598644,646 189.870838,644.644356 192.278734,642.2335 L297.267157,537.245077 C297.267157,537.245077 300.656267,472.83718 225.030268,377.557301 L341,493.512234 L489.454873,641.952307 C491.862769,644.363163 495.134963,645.718807 498.541833,645.718807 C501.948703,645.718807 505.220896,644.363163 507.628792,641.952307 L646.967107,502.613993 C649.377963,500.206096 650.733607,496.933903 650.733607,493.527033 C650.733607,490.120163 649.377963,486.84797 646.967107,484.440074 L498.541833,336.0148 Z" id="Fill-1"></path>
            </g>
        </g>
    </g>
</svg>