<?xml version="1.0" encoding="UTF-8"?>
<svg width="570px" height="667px" viewBox="0 0 570 667" version="1.1" xmlns="http://www.w3.org/2000/svg" xmlns:xlink="http://www.w3.org/1999/xlink">
    <title>Fill 1</title>
    <g id="ðŸ› ï¸-For-Devs---Templates---Parishes" stroke="none" stroke-width="1" fill="none" fill-rule="evenodd" fill-opacity="0.05">
        <g id="Expand-the-Story" transform="translate(-1030.000000, -1626.000000)" fill="#231F20">
            <path d="M1497.74281,1959.51592 L1646.23188,1799.83905 C1648.64377,1797.24862 1650,1793.72838 1650,1790.06324 C1650,1786.39811 1648.64377,1782.87787 1646.23188,1780.28743 L1506.83367,1630.38638 C1504.42474,1627.79276 1501.15114,1626.33435 1497.74281,1626.33435 C1494.33447,1626.33435 1491.06087,1627.79276 1488.65194,1630.38638 L1340.16287,1790.06324 L1339.83713,1789.71297 L1191.34806,1630.05203 C1188.93913,1627.45841 1185.66553,1626 1182.25719,1626 C1178.84886,1626 1175.57526,1627.45841 1173.16633,1630.05203 L1033.76812,1779.95308 C1031.35623,1782.54351 1030,1786.06376 1030,1789.72889 C1030,1793.39403 1031.35623,1796.91427 1033.76812,1799.5047 L1182.56812,1959.51592 L1033.76812,2119.52714 C1031.35623,2122.11757 1030,2125.63782 1030,2129.30295 C1030,2132.96808 1031.35623,2136.48833 1033.76812,2139.07876 L1173.16633,2288.94797 C1175.57526,2291.54159 1178.84886,2293 1182.25719,2293 C1185.66553,2293 1188.93913,2291.54159 1191.34806,2288.94797 L1296.38161,2176.00075 C1296.38161,2176.00075 1299.77218,2106.71032 1224.11367,2004.20761 L1340.13325,2128.95268 L1488.65194,2288.64547 C1491.06087,2291.23908 1494.33447,2292.69749 1497.74281,2292.69749 C1501.15114,2292.69749 1504.42474,2291.23908 1506.83367,2288.64547 L1646.23188,2138.74441 C1648.64377,2136.15398 1650,2132.63373 1650,2128.9686 C1650,2125.30347 1648.64377,2121.78322 1646.23188,2119.19279 L1497.74281,1959.51592 Z" id="Fill-1"></path>
        </g>
    </g>
</svg>